<svg xmlns="http://www.w3.org/2000/svg" viewBox="0 0 100 47" style="enable-background:new 0 0 100 47" xml:space="preserve"><linearGradient id="a" gradientUnits="userSpaceOnUse" x1=".173" y1="19.232" x2="12.939" y2="19.232"><stop offset="0" style="stop-color:#a34195"/><stop offset="1" style="stop-color:#ea3338"/></linearGradient><path d="M11.2 31c-.8.7-1.9 1-3.3 1-1.6 0-2.7-.3-3.3-1-.7-.7-1-1.7-1-3.1V15c0-.1-.1-.2-.3-.2h-3l-.1-.1V14c0-.1 0-.2.1-.2h3.1c.2 0 .3-.1.3-.2v-3.5c.5 0 .9-.2 1.4-.5.4-.3.8-.6 1.2-1 .2-.2.5-.6.8-1 .2-.4.4-.8.5-1.1.1-.1.4-.1.9 0v7.2c0 .1.1.2.4.2h3.6V14.9H8.9c-.3 0-.4.1-.4.2v14.3c0 .4.1.7.4.9.3.2.6.3 1 .3.6 0 1.1-.3 1.5-.8.4-.5.7-1.1 1-1.9l.1.1c.1 0 .1.1.2.1.1.1.2.1.2.1.1 0 .1.1.1.1-.4 1.1-.9 2-1.8 2.7z" style="fill:url(#a)"/><linearGradient id="b" gradientUnits="userSpaceOnUse" x1="15.024" y1="22.695" x2="33.255" y2="22.695"><stop offset="0" style="stop-color:#a34195"/><stop offset="1" style="stop-color:#ea3338"/></linearGradient><path d="M32 31.4c-.7.3-1.4.5-2.3.5-.5 0-.9-.1-1.4-.2-.5-.1-.9-.3-1.3-.6s-.7-.5-1-.9c-.3-.3-.4-.7-.5-1.1-.3.9-.8 1.5-1.5 2s-1.6.7-2.7.7c-.8 0-1.5-.1-2.3-.2-.8-.2-1.4-.4-2-.7-.6-.3-1.1-.8-1.5-1.3-.4-.6-.6-1.3-.6-2.1 0-1.1.2-2 .7-2.6.5-.7 1-1.2 1.7-1.6.7-.4 1.3-.6 2-.8.7-.1 1.3-.2 1.7-.3 1.2-.1 2.3-.2 3.1-.4.8-.1 1.3-.4 1.3-.9v-3.2c0-.8-.1-1.5-.2-1.9-.1-.5-.3-.8-.5-1-.2-.2-.5-.4-.8-.4-.3 0-.7-.1-1.1-.1H22c-.3 0-.5 0-.7.1-.2.1-.4.2-.5.4-.1.2-.2.5-.2.9s.1.7.2.9c.1.2.2.5.2.9s-.2.8-.5 1.2c-.3.3-.9.5-1.6.5-.7 0-1.3-.2-1.6-.6-.3-.4-.5-.9-.5-1.4 0-.4.2-.8.5-1.3.3-.4.7-.8 1.3-1.2.6-.4 1.2-.7 1.9-.9.7-.2 1.6-.3 2.4-.3 2.3 0 4.1.6 5.4 1.8 1.4 1.2 2 3.1 2 5.7v8.1c0 .9.3 1.4.9 1.4.4 0 .7-.1.9-.2.2-.2.4-.3.4-.6h.1l.2.2c.1.1.2.1.2.2l.1.1c0 .5-.4.9-1.1 1.2zm-6.5-9c-.5.3-1.1.5-1.6.6-.6.1-1.2.1-1.8.2-.4.1-.7.2-1 .3-.3.1-.5.3-.6.6-.2.3-.3.7-.4 1.3-.1.5-.1 1.2-.1 2.2v1.3c0 .4.1.7.3 1 .1.3.4.5.6.7.3.2.7.3 1.3.3 1 0 1.8-.5 2.4-1.4.6-.9.9-2.1.9-3.4v-3.7z" style="fill:url(#b)"/><linearGradient id="c" gradientUnits="userSpaceOnUse" x1="34.255" y1="30.788" x2="54.989" y2="30.788"><stop offset="0" style="stop-color:#a34195"/><stop offset="1" style="stop-color:#ea3338"/></linearGradient><path d="M51.9 16.6c-.2 0-.3 0-.5.1s-.4.2-.6.5c-.2.2-.4.6-.7 1.1.5.6.8 1.1.9 1.6.2.5.2 1.2.2 2 0 .9-.2 1.8-.6 2.6-.4.8-.9 1.5-1.5 2.1-.7.6-1.4 1.1-2.3 1.4-.8.4-1.8.5-2.8.5-1.2 0-2.2-.2-3.1-.6-.9-.4-1.6-.8-2-1.2-.3.3-.6.6-.8 1-.2.4-.3.9-.3 1.5 0 .5.1.9.2 1.2.1.3.3.5.6.7.3.2.6.2 1 .3h7.3c2.4 0 4.4.6 5.9 1.8 1.5 1.2 2.3 3 2.3 5.3 0 1.3-.3 2.4-1 3.4s-1.5 1.8-2.6 2.5c-1 .7-2.2 1.2-3.4 1.5-1.3.3-2.5.5-3.6.5-1.5 0-2.9-.2-4.1-.5-1.2-.3-2.3-.7-3.2-1.2-.9-.5-1.6-1.1-2.1-1.8s-.7-1.4-.7-2.2c0-.6.1-1.1.4-1.7.2-.5.6-1 1-1.5s.9-.9 1.4-1.2c.6-.3 1.2-.6 1.8-.8-1.2-.3-2.2-.8-2.9-1.6-.8-.8-1.1-1.8-1.1-2.8 0-1.3.3-2.3 1-3 .7-.8 1.5-1.5 2.6-2.1-.5-.6-.9-1.2-1.2-1.9-.3-.7-.5-1.5-.5-2.2 0-.9.2-1.8.6-2.6.4-.8.9-1.5 1.6-2.1.7-.6 1.4-1.1 2.3-1.4.9-.3 1.8-.5 2.8-.5 1.2 0 2.3.2 3.3.7.9.4 1.7 1.1 2.4 1.8.4-.7.9-1.3 1.5-1.8M51.7 38.7c-.2-.5-.5-1-1-1.4-.5-.4-1-.8-1.8-1-.7-.3-1.6-.4-2.6-.4H39.9c-.1 0-.1 0 0 0-.5.3-.9.5-1.1.8-.3.3-.5.5-.7.9-.2.3-.3.7-.4 1.2-.1.4-.1 1-.1 1.6 0 1.1.1 2 .4 2.7.3.7.7 1.2 1.3 1.6.6.4 1.3.6 2.1.8.8.1 1.8.2 3 .2 1 0 2-.1 2.9-.3.9-.2 1.8-.5 2.5-.9s1.3-.9 1.7-1.6c.4-.6.6-1.4.6-2.3-.1-.8-.2-1.4-.4-1.9zm-5-20.2c-.2-.8-.4-1.4-.8-1.8-.2-.2-.5-.4-.8-.4-.3-.1-.7-.1-1-.1-.3 0-.7 0-1 .1-.3.1-.6.2-.8.4-.4.4-.7 1-.9 1.8-.2.8-.3 1.9-.3 3.3 0 1.6.1 2.7.3 3.5.2.7.5 1.3.9 1.6.2.3.5.4.8.5.3.1.6.1 1 .1s.7 0 1-.1c.3-.1.6-.2.8-.5.4-.4.6-.9.8-1.6.2-.7.3-1.9.3-3.5-.1-1.4-.2-2.5-.3-3.3z" style="fill:url(#c)"/><linearGradient id="d" gradientUnits="userSpaceOnUse" x1="55.531" y1="22.695" x2="76.264" y2="22.695"><stop offset="0" style="stop-color:#a34195"/><stop offset="1" style="stop-color:#ea3338"/></linearGradient><path d="M73.2 8.5c-.2 0-.3 0-.5.1s-.4.2-.6.5c-.2.2-.4.6-.7 1.1.5.6.8 1.1.9 1.6.2.5.2 1.2.2 2 0 .9-.2 1.8-.6 2.6-.4.8-.9 1.5-1.5 2.1-.7.6-1.4 1.1-2.3 1.4-.9.3-1.8.5-2.8.5-1.2 0-2.2-.2-3.1-.6-.9-.4-1.6-.8-2-1.2-.3.3-.6.6-.8 1-.3.4-.4.9-.4 1.6 0 .5.1.9.2 1.2.1.3.3.5.6.7.3.2.6.2 1 .3h7.3c2.4 0 4.4.6 5.9 1.8 1.5 1.2 2.3 3 2.3 5.3 0 1.3-.3 2.4-1 3.4s-1.5 1.8-2.6 2.5c-1 .7-2.2 1.2-3.4 1.5-1.3.3-2.5.5-3.6.5-1.5 0-2.9-.2-4.1-.5-1.2-.3-2.3-.7-3.2-1.2-.9-.5-1.6-1.1-2.1-1.8s-.7-1.4-.7-2.2c0-.6.1-1.1.4-1.7.2-.5.6-1 1-1.5s.9-.9 1.4-1.2c.6-.3 1.2-.6 1.8-.8-1.2-.3-2.2-.8-2.9-1.6-.9-.9-1.3-1.8-1.3-2.9 0-1.3.3-2.3 1-3 .7-.8 1.5-1.5 2.6-2.1-.5-.6-.9-1.2-1.2-1.9-.3-.7-.5-1.5-.5-2.2 0-.9.2-1.8.6-2.6.4-.8.9-1.5 1.6-2.1.7-.6 1.4-1.1 2.3-1.4.9-.3 1.8-.5 2.8-.5 1.2 0 2.3.2 3.3.7.9.4 1.7 1.1 2.4 1.8.4-.7.9-1.3 1.5-1.8M73 30.6c-.2-.5-.5-1-1-1.4-.5-.4-1-.8-1.8-1-.7-.3-1.6-.4-2.6-.4H61.3c-.1 0-.1 0 0 0-.5.3-.9.5-1.1.8-.3.3-.5.5-.7.9-.2.3-.3.7-.4 1.2-.1.4-.1 1-.1 1.6 0 1.1.1 2 .4 2.7.3.7.7 1.2 1.3 1.6.6.4 1.3.6 2.1.8.8.1 1.8.2 3 .2 1 0 2-.1 2.9-.3.9-.2 1.8-.5 2.5-.9s1.3-.9 1.7-1.6c.4-.6.6-1.4.6-2.3-.2-.8-.3-1.4-.5-1.9zm-5.1-20.2c-.2-.8-.4-1.4-.8-1.8-.2-.2-.5-.4-.8-.4-.3-.1-.7-.1-1-.1-.3 0-.7 0-1 .1-.3.1-.6.2-.8.4-.4.4-.7 1-.9 1.8-.2.8-.3 1.9-.3 3.3 0 1.6.1 2.7.3 3.5.2.7.5 1.3.9 1.6.2.3.5.4.8.5.3.1.6.1 1 .1s.7 0 1-.1c.3-.1.6-.2.8-.5.4-.4.6-.9.8-1.6.2-.7.3-1.9.3-3.5 0-1.4-.1-2.5-.3-3.3z" style="fill:url(#d)"/><linearGradient id="e" gradientUnits="userSpaceOnUse" x1="77.933" y1="16.479" x2="99" y2="16.479"><stop offset="0" style="stop-color:#a34195"/><stop offset="1" style="stop-color:#ea3338"/></linearGradient><path d="M91.4 31.6c-.1 0-.1 0-.1-.1v-1.8c-.1.2-.2.4-.4.6-.2.3-.6.5-1 .8-.4.3-.9.5-1.5.6-.6.2-1.2.3-1.9.3-1.3 0-2.5-.3-3.5-.8s-1.9-1.2-2.7-2.1c-.7-.9-1.3-1.8-1.7-2.9-.4-1.1-.6-2.2-.6-3.4 0-1.2.2-2.3.7-3.4.5-1.1 1.1-2.1 2-3 .8-.9 1.8-1.6 2.9-2.1 1.1-.5 2.3-.8 3.6-.8.9 0 1.7.1 2.3.4.7.3 1.2.7 1.7 1.3V2.1c0-.1 0-.1-.2-.1h-2.4l-.1-.1v-.7c0-.1 0-.2.1-.2H96c.1 0 .2 0 .2.1v29.4c0 .1.1.2.3.2H99V31.7h-7.6zM91.2 17c-.1-.4-.3-.7-.5-1-.3-.3-.6-.6-1-.8-.4-.2-.8-.4-1.2-.5-.4-.1-.9-.2-1.3-.2-.6 0-1.1.1-1.4.2-.4.1-.7.3-1.1.6-.6.6-.9 1.5-1.2 2.7-.2 1.3-.3 2.9-.3 4.8 0 2 .1 3.5.3 4.7.2 1.2.6 2 1.2 2.6l.4.4.3.3c.1.1.2.1.4.1h.7c.9 0 1.7-.1 2.3-.4.6-.2 1.1-.5 1.5-.9.4-.4.6-.8.8-1.2.2-.4.2-.8.2-1.2V17z" style="fill:url(#e)"/></svg>