<?xml version="1.0" standalone="no"?>
<!DOCTYPE svg PUBLIC "-//W3C//DTD SVG 20010904//EN"
 "http://www.w3.org/TR/2001/REC-SVG-20010904/DTD/svg10.dtd">
<svg version="1.0" xmlns="http://www.w3.org/2000/svg"
 width="64.000000pt" height="64.000000pt" viewBox="0 0 64.000000 64.000000"
 preserveAspectRatio="xMidYMid meet">

<g transform="translate(0.000000,64.000000) scale(0.100000,-0.100000)"
fill="#ff2121" stroke="none">
<path d="M160 600 c-13 -13 -20 -33 -20 -60 l0 -39 -57 -3 -58 -3 0 -115 0
-115 58 -3 57 -3 0 -99 c0 -141 -1 -140 180 -140 167 0 180 6 180 90 l0 50 60
0 60 0 0 114 c0 128 1 126 -76 126 l-44 0 0 90 c0 129 -1 130 -180 130 -127 0
-142 -2 -160 -20z m70 -34 c0 -31 30 -46 90 -46 60 0 90 15 90 46 0 10 8 14
23 12 21 -3 22 -8 25 -90 3 -88 3 -88 -22 -88 -54 0 -56 -3 -56 -126 l0 -114
41 0 40 0 -3 -48 -3 -47 -135 0 -135 0 -3 97 -3 97 78 3 78 3 0 115 0 115 -77
3 -78 3 0 33 c0 18 3 36 7 39 12 13 43 7 43 -7z m140 4 c0 -5 -22 -10 -50 -10
-27 0 -50 5 -50 10 0 6 23 10 50 10 28 0 50 -4 50 -10z m-70 -190 l0 -80 -120
0 -120 0 0 80 0 80 120 0 120 0 0 -80z m280 -100 l0 -80 -80 0 -80 0 0 80 0
80 80 0 80 0 0 -80z"/>
<path d="M245 130 c-14 -22 12 -31 81 -28 53 2 69 6 69 18 0 12 -16 16 -72 18
-45 2 -74 -1 -78 -8z"/>
<path d="M164 394 c-16 -37 -13 -64 6 -64 14 0 43 68 36 86 -9 24 -27 15 -42
-22z"/>
<path d="M95 400 c-18 -20 -18 -21 2 -42 27 -26 41 -17 39 24 -2 39 -16 45
-41 18z"/>
<path d="M227 413 c-8 -16 -2 -66 9 -70 6 -2 19 6 29 17 17 19 17 21 0 40 -19
21 -31 25 -38 13z"/>
<path d="M453 323 c-7 -2 -13 -11 -13 -19 0 -10 15 -14 60 -14 45 0 60 4 60
14 0 8 -7 17 -16 20 -18 7 -73 7 -91 -1z"/>
<path d="M453 263 c-7 -2 -13 -11 -13 -19 0 -10 12 -14 40 -14 28 0 40 4 40
14 0 21 -37 32 -67 19z"/>
</g>
</svg>
