<svg xmlns="http://www.w3.org/2000/svg" version="1.1" xmlns:xlink="http://www.w3.org/1999/xlink" xmlns:svgjs="http://svgjs.dev/svgjs" viewBox="0 0 800 800"><defs><linearGradient x1="50%" y1="0%" x2="50%" y2="100%" id="ccchaos-grad"><stop stop-color="hsl(206, 75%, 49%)" stop-opacity="1" offset="0%"></stop><stop stop-color="hsl(331, 90%, 56%)" stop-opacity="1" offset="100%"></stop></linearGradient></defs><g stroke-width="2" stroke="url(#ccchaos-grad)" fill="none" stroke-linecap="round"><path d="M400.56 111.6C410.44 109.4 420.54 107.83 430.82 106.91 441.14 106.19 451.66 106.18 462.38 106.9 473.13 107.89 484.06 109.64 495.14 112.1 506.22 114.87 517.38 118.35 528.54 122.5 539.6 126.93 550.52 131.99 561.15 137.62 571.48 143.47 581.3 149.83 590.44 156.65 598.98 163.6 606.57 170.95 613.04 178.65 618.66 186.39 622.99 194.43 625.93 202.71 628.02 210.99 628.8 219.47 628.38 228.12 627.54 236.73 625.94 245.49 623.88 254.38 622.31 263.21 621.02 272.16 620.4 281.23 621.3 290.23 623.53 299.36 627.35 308.6 633.22 317.78 640.77 327.1 649.86 336.54 660.44 345.94 671.81 355.49 683.37 365.18 694.78 374.84 705.06 384.66 713.5 394.62 719.9 404.58 723.39 414.68 723.62 424.93 721.03 435.17 715.38 445.3 707.19 455.3 697.41 465.29 686.34 475.13 674.73 484.78 663.55 494.4 653.09 503.81 643.85 512.96 636.46 522.04 630.82 530.82 626.93 539.24 625.1 547.56 624.7 555.47 625.38 562.91 627.31 570.21 629.56 577 631.7 583.22 634.71 591.98 634.68 606.14 630.67 611.5 626.54 614.71 620.99 617.33 614.17 619.39 606.51 621.41 597.81 622.98 588.29 624.14 578.25 625.45 567.65 626.51 556.71 627.4 545.54 628.67 534.22 629.94 522.89 631.3 511.52 633.25 500.24 635.44 489.12 637.91 478.05 641.12 467.16 644.67 456.49 648.57 445.88 653.19 435.47 658.1 425.28 663.21 415.12 668.85 405.16 674.5 395.39 680.01 385.63 685.67 376.27 690.77 367.31 695.17 358.33 699.31 349.73 702.5 341.49 704.68 333.2 706.29 325.26 706.74 317.64 706.03 309.94 704.62 302.53 702.04 295.38 698.35 288.08 693.99 280.97 688.62 274.04 682.33 266.88 675.54 259.8 667.98 252.78 659.77 245.46 651.26 238.13 642.27 230.78 632.9 223.1 623.41 215.39 613.68 207.67 603.8 199.7 593.94 191.78 584.01 183.99 574.06 176.13 564.22 168.54 554.4 161.33 544.63 154.3 535 147.82 525.41 142.01 515.88 136.59 506.48 131.95 497.1 128.15 487.75 124.83 478.5 122.35 469.25 120.69 459.98 119.38 450.77 118.74 441.52 118.72 432.23 118.73 422.97 119.11 413.63 119.79 404.24 120.14 394.86 120.59 385.4 121.07 375.89 121.03 366.37 121 357.02 121 347.86 120.59 338.7 120.37 329.73 120.44 320.99 120.41 312.26 120.88 303.77 121.96 295.55 123.27 287.35 125.36 279.44 128.24 271.84 131.58 264.28 135.76 257.05 140.76 250.17 146.2 243.32 152.36 236.83 159.16 230.72 166.23 224.64 173.77 218.92 181.68 213.58 189.61 208.23 197.75 203.24 206.01 198.6 214.1 193.9 222.22 189.51 230.33 185.44 238.15 181.23 245.96 177.29 253.74 173.59 261.22 169.69 268.73 165.99 276.3 162.47 283.61 158.69 291.05 155.05 298.65 151.56 306.07 147.78 313.72 144.13 321.63 140.63 329.42 136.84 337.52 133.22 345.94 129.8 354.31 126.18 363.03 122.81 372.13 119.75 381.19 116.61 390.66 113.87 400.55 111.6" stroke-dasharray="10 4" transform="rotate(0, 400, 400)" opacity="0.05"></path><path d="M407.3 122.53C416.96 120.35 426.8 118.78 436.79 117.83 446.81 117.05 457 116.97 467.31 117.57 477.64 118.43 488.07 120 498.55 122.26 508.99 124.8 519.41 128.04 529.7 131.91 539.82 136.05 549.68 140.81 559.13 146.12 568.23 151.64 576.72 157.68 584.45 164.17 591.59 170.8 597.77 177.83 602.85 185.21 607.2 192.66 610.38 200.41 612.33 208.41 613.66 216.43 613.92 224.66 613.26 233.08 612.44 241.46 611.14 250.01 609.66 258.69 608.84 267.33 608.47 276.1 608.89 284.97 610.81 293.79 614.03 302.74 618.71 311.78 625.21 320.78 633.17 329.89 642.4 339.11 652.83 348.3 663.82 357.62 674.81 367.04 685.52 376.44 695.07 385.97 702.84 395.61 708.7 405.24 711.87 414.99 712.03 424.84 709.63 434.68 704.41 444.39 696.81 453.93 687.71 463.47 677.32 472.82 666.31 481.95 655.53 491.06 645.26 499.93 635.96 508.51 628.22 517.03 621.98 525.23 617.31 533.07 614.52 540.8 613.11 548.13 612.81 555 614.54 564.85 619.58 581.72 620.98 588.63 620.78 594.73 613.16 603.96 605.64 607.21 599.45 609.23 592.21 610.85 584.08 612.14 575.41 613.61 566.08 614.87 556.27 616.01 546.17 617.52 535.77 619.06 525.23 620.68 514.59 622.86 503.91 625.26 493.3 627.9 482.68 631.22 472.18 634.84 461.84 638.75 451.53 643.3 441.38 648.09 431.44 653.03 421.52 658.44 411.77 663.84 402.23 669.08 392.69 674.45 383.54 679.3 374.79 683.49 366 687.45 357.57 690.55 349.49 692.7 341.35 694.35 333.52 694.94 325.98 694.45 318.33 693.33 310.93 691.13 303.74 687.88 296.38 684.03 289.18 679.2 282.09 673.5 274.78 667.32 267.51 660.37 260.28 652.79 252.76 644.89 245.23 636.48 237.68 627.67 229.86 618.71 222.03 609.47 214.22 600.03 206.24 590.57 198.36 581 190.67 571.37 182.98 561.81 175.62 552.24 168.68 542.68 161.98 533.23 155.86 523.81 150.42 514.43 145.4 505.15 141.16 495.91 137.74 486.69 134.77 477.57 132.62 468.45 131.25 459.34 130.19 450.28 129.76 441.21 129.91 432.13 130.05 423.07 130.53 413.98 131.28 404.86 131.69 395.75 132.17 386.6 132.66 377.43 132.63 368.26 132.58 359.28 132.54 350.51 132.09 341.74 131.8 333.18 131.75 324.86 131.59 316.54 131.88 308.48 132.72 300.69 133.77 292.91 135.54 285.42 138.08 278.24 141.03 271.08 144.8 264.24 149.37 257.74 154.39 251.25 160.14 245.11 166.54 239.32 173.26 233.53 180.49 228.09 188.13 222.99 195.87 217.87 203.88 213.07 212.07 208.6 220.16 204.05 228.33 199.78 236.53 195.79 244.51 191.66 252.48 187.77 260.44 184.1 268.14 180.23 275.85 176.53 283.59 173.01 291.09 169.24 298.68 165.6 306.38 162.1 313.9 158.33 321.61 154.69 329.51 151.19 337.3 147.44 345.35 143.85 353.68 140.47 361.94 136.89 370.53 133.57 379.46 130.56 388.36 127.47 397.63 124.77 407.29 122.54" stroke-dasharray="5 5" transform="rotate(4.04, 400, 400)" opacity="0.09"></path><path d="M413.36 133.46C422.77 131.31 432.3 129.74 441.94 128.75 451.58 127.94 461.33 127.78 471.13 128.26 480.91 128.99 490.72 130.4 500.48 132.46 510.15 134.79 519.69 137.77 529 141.37 538.1 145.23 546.83 149.67 555.06 154.66 562.92 159.86 570.11 165.56 576.51 171.7 582.37 178 587.3 184.69 591.21 191.73 594.52 198.86 596.8 206.3 598.06 213.99 598.91 221.72 598.93 229.67 598.28 237.81 597.71 245.94 596.9 254.25 596.12 262.68 596.13 271.09 596.71 279.63 598.14 288.28 601.02 296.89 605.1 305.62 610.52 314.43 617.52 323.21 625.76 332.1 635.01 341.07 645.22 350.02 655.76 359.07 666.15 368.21 676.16 377.33 685 386.55 692.12 395.85 697.47 405.15 700.34 414.53 700.44 423.97 698.22 433.41 693.41 442.69 686.38 451.77 677.94 460.84 668.22 469.71 657.81 478.34 647.5 486.94 637.49 495.28 628.21 503.31 620.24 511.3 613.53 518.95 608.2 526.22 604.55 533.41 602.2 540.2 600.94 546.54 601.3 555.64 604.66 571.17 605.97 577.54 606.31 583.22 601.21 591.96 595.45 595.17 590.59 597.22 584.7 598.93 577.92 600.36 570.6 602 562.56 603.47 553.95 604.84 545.01 606.59 535.66 608.37 526.05 610.23 516.28 612.62 506.37 615.2 496.41 617.99 486.41 621.39 476.43 625.05 466.54 628.95 456.66 633.42 446.88 638.08 437.25 642.85 427.64 648.03 418.17 653.17 408.86 658.14 399.56 663.25 390.61 667.84 382.02 671.82 373.41 675.61 365.11 678.6 357.12 680.71 349.07 682.39 341.28 683.09 333.74 682.8 326.09 681.95 318.63 680.09 311.34 677.26 303.89 673.87 296.54 669.57 289.27 664.42 281.79 658.82 274.34 652.49 266.9 645.51 259.22 638.22 251.52 630.41 243.83 622.18 235.92 613.77 228.05 605.05 220.24 596.1 212.33 587.1 204.57 577.94 197.06 568.68 189.62 559.46 182.56 550.19 175.97 540.91 169.65 531.71 163.94 522.5 158.92 513.33 154.32 504.24 150.49 495.18 147.45 486.14 144.85 477.18 143.02 468.24 141.93 459.32 141.1 450.45 140.87 441.58 141.16 432.71 141.42 423.88 141.99 415.04 142.79 406.2 143.25 397.37 143.75 388.52 144.25 379.69 144.23 370.85 144.17 362.23 144.11 353.83 143.62 345.43 143.27 337.26 143.13 329.33 142.85 321.41 142.98 313.74 143.61 306.35 144.41 298.96 145.88 291.86 148.06 285.06 150.63 278.27 153.99 271.78 158.11 265.62 162.68 259.46 167.98 253.63 173.94 248.12 180.24 242.6 187.09 237.4 194.4 232.52 201.86 227.59 209.65 222.96 217.67 218.62 225.67 214.19 233.81 210.02 242.01 206.1 250.06 202.04 258.14 198.18 266.22 194.53 274.09 190.68 281.97 187 289.87 183.47 297.56 179.7 305.3 176.07 313.12 172.57 320.78 168.81 328.57 165.18 336.52 161.7 344.35 157.99 352.39 154.44 360.66 151.1 368.87 147.58 377.36 144.32 386.13 141.36 394.88 138.33 403.95 135.67 413.35 133.47" stroke-dasharray="9 10" transform="rotate(8.08, 400, 400)" opacity="0.13"></path><path d="M418.19 144.39C427.3 142.27 436.47 140.7 445.68 139.7 454.88 138.85 464.1 138.61 473.29 139 482.46 139.6 491.54 140.84 500.48 142.71 509.31 144.83 517.91 147.57 526.18 150.89 534.24 154.47 541.84 158.6 548.88 163.26 555.57 168.13 561.56 173.48 566.77 179.27 571.53 185.22 575.42 191.56 578.39 198.25 580.92 205.03 582.58 212.13 583.42 219.49 584.05 226.9 584.08 234.54 583.68 242.37 583.53 250.22 583.34 258.24 583.36 266.39 584.24 274.54 585.76 282.82 588.15 291.21 591.88 299.57 596.73 308.04 602.74 316.6 610.12 325.13 618.51 333.76 627.68 342.45 637.58 351.14 647.64 359.9 657.4 368.73 666.71 377.55 674.86 386.44 681.36 395.38 686.23 404.33 688.8 413.32 688.85 422.35 686.81 431.38 682.38 440.21 675.9 448.84 668.1 457.45 659.05 465.84 649.26 473.97 639.44 482.08 629.75 489.91 620.59 497.42 612.49 504.89 605.44 512.02 599.55 518.78 595.17 525.47 591.95 531.76 589.79 537.61 588.78 546.04 590.13 560.42 591.05 566.34 589.85 575.89 577.73 586.32 569.82 588.82 563.78 590.63 556.99 592.3 549.57 593.9 541.81 595.87 533.56 597.87 524.96 599.95 516.16 602.52 507.12 605.25 497.94 608.17 488.67 611.63 479.34 615.3 470 619.17 460.65 623.55 451.33 628.07 442.09 632.65 432.86 637.61 423.71 642.5 414.67 647.21 405.63 652.04 396.9 656.39 388.47 660.17 380.01 663.78 371.83 666.65 363.9 668.72 355.91 670.41 348.13 671.2 340.55 671.08 332.87 670.47 325.33 668.92 317.91 666.47 310.35 663.52 302.85 659.7 295.42 655.1 287.79 650.06 280.18 644.31 272.58 637.94 264.79 631.25 257.01 624.04 249.25 616.39 241.34 608.56 233.5 600.39 225.78 591.95 218.04 583.44 210.5 574.74 203.25 565.9 196.14 557.08 189.45 548.16 183.25 539.21 177.37 530.31 172.11 521.39 167.54 512.48 163.38 503.64 159.97 494.8 157.32 485.99 155.08 477.24 153.56 468.51 152.73 459.81 152.13 451.16 152.07 442.51 152.49 433.9 152.85 425.31 153.49 416.72 154.33 408.17 154.81 399.62 155.33 391.08 155.84 382.58 155.82 374.08 155.77 365.8 155.69 357.75 155.19 349.71 154.79 341.9 154.58 334.35 154.2 326.79 154.19 319.5 154.63 312.47 155.2 305.45 156.38 298.7 158.23 292.25 160.42 285.79 163.36 279.63 167.03 273.78 171.12 267.91 175.94 262.34 181.42 257.09 187.25 251.8 193.67 246.81 200.56 242.1 207.67 237.35 215.15 232.85 222.91 228.63 230.72 224.3 238.71 220.21 246.82 216.35 254.85 212.34 262.95 208.51 271.07 204.88 279.04 201.05 287.03 197.37 295.03 193.84 302.87 190.08 310.74 186.45 318.67 182.95 326.45 179.22 334.32 175.61 342.31 172.16 350.2 168.49 358.25 164.99 366.47 161.69 374.63 158.24 383.01 155.04 391.63 152.14 400.22 149.17 409.07 146.57 418.18 144.4" stroke-dasharray="3 5" transform="rotate(12.12, 400, 400)" opacity="0.16"></path><path d="M421.33 155.33C430.11 153.24 438.87 151.68 447.58 150.66 456.29 149.77 464.93 149.48 473.45 149.76 481.93 150.24 490.24 151.33 498.32 153.01 506.28 154.92 513.93 157.42 521.18 160.48 528.22 163.77 534.75 167.6 540.7 171.93 546.34 176.46 551.3 181.47 555.51 186.89 559.37 192.48 562.46 198.46 564.75 204.77 566.77 211.2 568.08 217.94 568.76 224.94 569.41 232 569.66 239.3 569.68 246.8 570.09 254.32 570.62 262.03 571.48 269.87 573.22 277.72 575.64 285.71 578.9 293.79 583.38 301.88 588.85 310.06 595.32 318.32 602.95 326.57 611.37 334.91 620.37 343.3 629.89 351.69 639.41 360.14 648.54 368.63 657.16 377.13 664.63 385.67 670.54 394.25 674.95 402.82 677.26 411.42 677.27 420.03 675.38 428.63 671.32 437.03 665.37 445.2 658.18 453.36 649.79 461.28 640.62 468.93 631.32 476.56 622.01 483.9 613.05 490.92 604.94 497.91 597.65 504.56 591.34 510.84 586.34 517.06 582.38 522.9 579.39 528.33 577.04 536.16 576.19 549.56 576.47 555.12 575.56 564.29 566.34 574.82 559.98 577.54 555.06 579.52 549.41 581.39 543.1 583.21 536.49 585.37 529.33 587.57 521.74 589.84 513.96 592.56 505.84 595.42 497.49 598.43 489.04 601.93 480.43 605.6 471.72 609.41 462.99 613.68 454.21 618.05 445.42 622.45 436.63 627.18 427.86 631.82 419.12 636.28 410.39 640.85 401.89 644.95 393.62 648.53 385.34 651.96 377.27 654.7 369.39 656.72 361.46 658.41 353.69 659.27 346.07 659.3 338.36 658.9 330.75 657.64 323.23 655.54 315.57 652.99 307.97 649.63 300.41 645.52 292.69 641.02 284.99 635.84 277.31 630.05 269.49 623.96 261.71 617.34 253.98 610.29 246.17 603.04 238.47 595.43 230.95 587.53 223.46 579.54 216.22 571.33 209.32 562.97 202.61 554.57 196.35 546.07 190.61 537.5 185.21 528.96 180.42 520.37 176.31 511.77 172.62 503.22 169.62 494.66 167.37 486.13 165.47 477.64 164.24 469.16 163.66 460.72 163.26 452.31 163.36 443.93 163.89 435.58 164.34 427.25 165.02 418.94 165.89 410.68 166.39 402.42 166.92 394.2 167.42 386.02 167.42 377.84 167.37 369.9 167.28 362.2 166.77 354.5 166.35 347.03 166.08 339.83 165.63 332.62 165.5 325.67 165.77 318.98 166.13 312.29 167.05 305.87 168.58 299.73 170.4 293.58 172.93 287.7 176.15 282.12 179.77 276.51 184.08 271.19 189.05 266.15 194.38 261.06 200.29 256.25 206.71 251.7 213.39 247.09 220.47 242.71 227.88 238.58 235.39 234.35 243.14 230.32 251.05 226.5 258.96 222.53 266.96 218.74 275.02 215.11 282.99 211.3 291 207.63 299.03 204.1 306.95 200.36 314.89 196.74 322.86 193.25 330.73 189.55 338.65 185.97 346.65 182.55 354.57 178.94 362.6 175.49 370.75 172.25 378.85 168.87 387.11 165.74 395.54 162.9 403.94 160 412.54 157.46 421.32 155.33" stroke-dasharray="2 5" transform="rotate(16.16, 400, 400)" opacity="0.20"></path><path d="M422.49 166.26C430.89 164.21 439.2 162.67 447.38 161.63 455.55 160.72 463.57 160.37 471.39 160.55 479.17 160.93 486.7 161.87 493.92 163.37 501.04 165.08 507.78 167.35 514.07 170.14 520.18 173.15 525.77 176.68 530.77 180.69 535.52 184.88 539.64 189.53 543.08 194.59 546.27 199.81 548.8 205.41 550.68 211.35 552.41 217.4 553.62 223.76 554.37 230.38 555.24 237.07 555.89 244.01 556.47 251.14 557.53 258.32 558.83 265.67 560.52 273.17 563.1 280.69 566.33 288.35 570.35 296.11 575.46 303.87 581.43 311.73 588.22 319.67 595.96 327.61 604.31 335.62 613.04 343.68 622.13 351.74 631.09 359.86 639.57 368 647.51 376.15 654.33 384.32 659.68 392.51 663.66 400.7 665.71 408.9 665.68 417.07 663.95 425.25 660.24 433.21 654.79 440.93 648.2 448.64 640.44 456.11 631.9 463.29 623.15 470.46 614.27 477.34 605.58 483.91 597.54 490.44 590.14 496.64 583.53 502.49 578.03 508.3 573.44 513.73 569.71 518.79 566.13 526.09 562.97 538.66 562.43 543.94 561.19 552.86 553.79 563.58 548.65 566.53 542.33 569.7 526.04 576.27 516.35 579.9 509.55 582.74 502.36 585.69 494.86 588.77 487.25 592.28 479.4 595.92 471.37 599.67 463.31 603.82 455.11 608.04 446.83 612.25 438.54 616.74 430.19 621.14 421.8 625.35 413.41 629.65 405.18 633.52 397.11 636.89 389.03 640.14 381.1 642.77 373.3 644.72 365.46 646.39 357.73 647.31 350.09 647.47 342.39 647.25 334.75 646.24 327.17 644.46 319.5 642.27 311.85 639.34 304.23 635.71 296.51 631.71 288.81 627.07 281.14 621.84 273.4 616.33 265.71 610.3 258.13 603.83 250.52 597.17 243.07 590.13 235.83 582.8 228.69 575.35 221.85 567.66 215.38 559.79 209.13 551.87 203.35 543.82 198.12 535.67 193.22 527.53 188.93 519.32 185.3 511.09 182.05 502.88 179.48 494.65 177.6 486.43 176.03 478.24 175.08 470.06 174.72 461.91 174.51 453.79 174.74 445.69 175.36 437.63 175.87 429.58 176.59 421.57 177.46 413.61 177.98 405.66 178.51 397.75 179.01 389.9 179.02 382.04 178.97 374.43 178.89 367.06 178.39 359.69 177.95 352.56 177.64 345.68 177.13 338.8 176.91 332.16 177.04 325.79 177.21 319.41 177.89 313.28 179.12 307.42 180.61 301.55 182.74 295.93 185.52 290.59 188.65 285.22 192.46 280.1 196.9 275.25 201.69 270.34 207.07 265.68 212.97 261.27 219.14 256.78 225.75 252.51 232.72 248.45 239.84 244.29 247.24 240.32 254.85 236.53 262.51 232.6 270.3 228.83 278.2 225.22 286.06 221.43 293.98 217.77 301.94 214.25 309.83 210.53 317.75 206.93 325.69 203.46 333.56 199.8 341.47 196.26 349.42 192.88 357.31 189.33 365.27 185.95 373.3 182.77 381.3 179.47 389.4 176.42 397.6 173.65 405.78 170.83 414.08 168.35 422.48 166.26" stroke-dasharray="5 4" transform="rotate(20.200000000000003, 400, 400)" opacity="0.24"></path><path d="M421.57 177.19C429.56 175.19 437.37 173.67 445 172.62 452.61 171.69 460 171.28 467.14 171.38 474.22 171.65 481 172.46 487.43 173.78 493.75 175.3 499.67 177.34 505.13 179.88 512.83 184.24 525.26 195.54 529.91 202.39 532.66 207.23 534.87 212.45 536.58 217.99 538.26 223.65 539.57 229.62 540.59 235.84 541.83 242.15 542.99 248.7 544.21 255.45 545.97 262.25 548.03 269.23 550.53 276.35 553.86 283.51 557.82 290.81 562.47 298.21 568.07 305.62 574.4 313.13 581.38 320.72 589.12 328.31 597.29 335.97 605.68 343.67 614.29 351.38 622.66 359.13 630.49 366.9 637.76 374.68 643.95 382.47 648.77 390.26 652.34 398.05 654.16 405.84 654.09 413.59 652.51 421.33 649.13 428.86 644.16 436.14 638.14 443.41 631.01 450.43 623.09 457.18 614.91 463.91 606.49 470.36 598.14 476.5 590.27 482.61 582.86 488.4 576.07 493.86 570.2 499.29 565.1 504.37 560.75 509.09 556.05 515.95 550.62 527.83 549.15 532.89 547.06 541.66 540.45 552.64 536.2 555.81 530.99 559.22 517.27 566.28 508.92 570.11 503.02 573.05 496.7 576.07 490.02 579.19 483.23 582.69 476.14 586.29 468.81 589.95 461.43 593.97 453.85 598.02 446.11 602.04 438.35 606.3 430.46 610.46 422.46 614.42 414.46 618.47 406.54 622.1 398.71 625.27 390.87 628.35 383.12 630.84 375.44 632.72 367.74 634.37 360.1 635.33 352.52 635.59 344.89 635.52 337.3 634.74 329.74 633.24 322.12 631.39 314.51 628.85 306.95 625.66 299.32 622.14 291.72 618 284.19 613.31 276.63 608.36 269.16 602.9 261.83 597.01 254.53 590.92 247.43 584.47 240.58 577.7 233.87 570.8 227.5 563.65 221.52 556.3 215.79 548.89 210.54 541.32 205.83 533.64 201.45 525.94 197.67 518.15 194.52 510.32 191.72 502.49 189.56 494.63 188.03 486.77 186.77 478.92 186.08 471.08 185.92 463.25 185.86 455.45 186.2 447.66 186.89 439.92 187.44 432.19 188.19 424.49 189.06 416.85 189.58 409.21 190.11 401.62 190.6 394.09 190.62 386.56 190.58 379.27 190.5 372.23 190.02 365.17 189.59 358.36 189.25 351.79 188.71 345.21 188.41 338.88 188.42 332.79 188.67 323.77 191.92 306.92 195.15 299.1 197.82 293.93 201.13 289 205.03 284.31 209.27 279.57 214.09 275.04 219.42 270.74 225.04 266.36 231.11 262.17 237.56 258.19 244.21 254.09 251.17 250.17 258.37 246.42 265.67 242.53 273.15 238.78 280.75 235.18 288.38 231.42 296.1 227.78 303.87 224.27 311.62 220.59 319.41 217.02 327.23 213.58 335 209.96 342.8 206.48 350.62 203.16 358.41 199.68 366.23 196.37 374.08 193.26 381.91 190.05 389.79 187.07 397.71 184.38 405.62 181.64 413.58 179.23 421.56 177.19" stroke-dasharray="4 1" transform="rotate(24.24, 400, 400)" opacity="0.28"></path><path d="M418.65 188.12C426.19 186.17 433.5 184.67 440.57 183.63 447.62 182.69 454.4 182.23 460.88 182.25 470.35 182.76 487.36 186.5 494.73 189.71 501.47 193.65 512.33 203.99 516.45 210.29 520.04 217.18 525.43 232.79 527.64 241.39 529.36 247.29 531.12 253.43 533.01 259.77 535.46 266.17 538.25 272.75 541.49 279.49 545.48 286.26 550.03 293.16 555.2 300.17 561.16 307.21 567.7 314.34 574.74 321.54 582.37 328.76 590.27 336.04 598.26 343.36 606.34 350.69 614.1 358.06 621.28 365.44 627.9 372.83 633.5 380.22 637.81 387.6 641 394.99 642.61 402.35 642.5 409.67 641.06 416.99 637.99 424.08 633.48 430.93 628.01 437.78 621.48 444.37 614.18 450.7 606.58 457.02 598.67 463.05 590.71 468.8 583.08 474.52 575.76 479.95 568.91 485.06 562.8 490.14 557.31 494.91 552.47 499.35 546.8 505.82 539.22 517.14 536.77 522.03 533.45 530.73 526.74 542.01 523.05 545.39 518.64 549.01 506.93 556.48 499.71 560.48 494.6 563.48 489.06 566.55 483.13 569.68 477.1 573.15 470.74 576.68 464.08 580.25 457.37 584.12 450.41 587.99 443.22 591.82 436.01 595.85 428.61 599.77 421.04 603.49 413.46 607.29 405.89 610.69 398.36 613.67 390.82 616.56 383.3 618.92 375.82 620.73 368.33 622.33 360.85 623.31 353.4 623.66 345.93 623.73 338.47 623.13 331.03 621.9 323.56 620.35 316.12 618.17 308.71 615.38 301.29 612.3 293.92 608.65 286.63 604.47 279.37 600.04 272.23 595.13 265.26 589.8 258.37 584.29 251.71 578.4 245.34 572.19 239.13 565.86 233.29 559.27 227.85 552.45 222.68 545.57 217.98 538.51 213.82 531.31 209.98 524.09 206.7 516.75 204.02 509.36 201.65 501.95 199.87 494.5 198.67 487.03 197.69 479.56 197.23 472.08 197.24 464.62 197.32 457.16 197.75 449.72 198.48 442.31 199.06 434.92 199.81 427.55 200.67 420.24 201.19 412.93 201.7 405.67 202.19 398.47 202.22 391.27 202.2 384.31 202.13 377.57 201.67 370.83 201.25 364.32 200.92 358.05 200.18 348.74 199.96 331.26 200.83 323.09 202.42 315.11 208.72 300.22 213.5 293.29 217.19 288.69 221.43 284.28 226.18 280.08 231.21 275.79 236.7 271.69 242.58 267.76 248.68 263.73 255.11 259.86 261.81 256.14 268.65 252.29 275.7 248.57 282.91 244.99 290.19 241.26 297.58 237.65 305.06 234.17 312.55 230.53 320.09 227 327.67 223.6 335.23 220.05 342.83 216.63 350.42 213.36 358.01 209.97 365.61 206.74 373.2 203.71 380.79 200.6 388.38 197.71 395.96 195.09 403.54 192.44 411.11 190.1 418.64 188.12" stroke-dasharray="4 0" transform="rotate(28.28, 400, 400)" opacity="0.32"></path><path d="M414 199.05C421.07 197.16 427.87 195.69 434.4 194.65 440.9 193.7 447.11 193.2 453 193.15 461.59 193.51 476.83 196.76 483.4 199.62 489.43 203.16 499.29 212.56 503.19 218.33 506.78 224.65 512.88 239.06 515.78 247.03 518.03 252.52 520.4 258.24 522.96 264.16 526.06 270.14 529.51 276.31 533.37 282.63 537.9 288.98 542.93 295.48 548.45 302.08 554.63 308.71 561.26 315.44 568.24 322.24 575.66 329.06 583.21 335.94 590.74 342.86 598.26 349.79 605.41 356.75 611.95 363.72 617.94 370.7 622.96 377.69 626.81 384.65 629.64 391.62 631.05 398.56 630.92 405.45 629.61 412.34 626.83 419.01 622.75 425.45 617.8 431.88 611.86 438.06 605.17 444 598.15 449.91 590.76 455.57 583.24 460.96 575.93 466.32 568.79 471.41 561.98 476.21 555.76 480.99 550.02 485.48 544.81 489.68 538.35 495.82 528.85 506.69 525.43 511.46 520.63 520.13 513.12 531.71 509.67 535.28 505.74 539.08 495.48 546.88 489.15 551 484.69 554.04 479.8 557.12 474.52 560.23 469.17 563.65 463.46 567.09 457.43 570.55 451.35 574.27 444.98 577.96 438.34 581.59 431.69 585.4 424.79 589.08 417.66 592.56 410.54 596.11 403.37 599.29 396.18 602.07 388.99 604.79 381.78 607.02 374.57 608.74 367.35 610.29 360.13 611.28 352.9 611.69 345.68 611.87 338.45 611.45 331.25 610.44 324.05 609.16 316.87 607.3 309.74 604.89 302.64 602.21 295.61 599 288.69 595.3 281.83 591.38 275.12 587 268.61 582.21 262.22 577.24 256.08 571.91 250.25 566.27 244.61 560.5 239.34 554.46 234.48 548.19 229.89 541.84 225.76 535.3 222.15 528.61 218.83 521.89 216.04 515.04 213.81 508.1 211.85 501.15 210.42 494.14 209.52 487.08 208.8 480.03 208.53 472.95 208.68 465.87 208.87 458.8 209.36 451.72 210.12 444.68 210.72 437.64 211.46 430.62 212.3 423.65 212.8 416.69 213.3 409.76 213.77 402.9 213.82 396.04 213.81 389.39 213.76 382.96 213.34 376.53 212.94 370.32 212.61 364.33 211.86 355.43 211.39 338.7 211.98 330.86 213.17 323.19 218.31 308.82 222.36 302.1 225.51 297.63 229.18 293.33 233.33 289.22 237.76 285.03 242.63 281 247.9 277.13 253.4 273.17 259.24 269.34 265.37 265.66 271.67 261.86 278.2 258.18 284.92 254.63 291.73 250.95 298.69 247.38 305.75 243.93 312.87 240.34 320.05 236.87 327.28 233.52 334.53 230.04 341.8 226.7 349.08 223.51 356.36 220.2 363.64 217.07 370.9 214.13 378.16 211.11 385.4 208.32 392.59 205.79 399.79 203.24 406.93 200.98 413.99 199.05" stroke-dasharray="2 10" transform="rotate(32.32, 400, 400)" opacity="0.35"></path><path d="M408.06 209.98C414.64 208.15 420.94 206.72 426.95 205.69 435.8 204.47 451.85 204.31 458.98 205.38 465.7 207.09 477.25 212.79 482.1 216.74 486.63 221.27 494.37 232.27 497.83 238.65 501.49 245.48 509.41 260.54 514.07 268.68 517.74 274.23 521.74 279.96 526.12 285.85 531.06 291.78 536.42 297.84 542.17 304.02 548.43 310.22 555.01 316.53 561.83 322.9 568.94 329.3 576.09 335.76 583.11 342.26 590.05 348.77 596.57 355.32 602.49 361.87 607.88 368.43 612.36 374.99 615.76 381.53 618.26 388.08 619.48 394.59 619.33 401.06 618.14 407.52 615.65 413.78 611.97 419.81 607.52 425.84 602.14 431.63 596.05 437.19 589.61 442.74 582.77 448.04 575.73 453.09 568.79 458.13 561.92 462.91 555.25 467.43 549.03 471.94 543.16 476.19 537.71 480.18 530.65 486.04 519.51 496.53 515.2 501.21 508.82 509.88 499.97 521.75 496.52 525.47 492.78 529.41 483.43 537.46 477.75 541.65 471.59 546.24 457.31 555.86 449.27 560.87 443.76 564.42 437.94 567.93 431.83 571.35 425.7 574.94 419.3 578.38 412.65 581.63 406 584.94 399.27 587.9 392.48 590.49 385.69 593.03 378.85 595.12 371.98 596.75 365.12 598.25 358.23 599.23 351.33 599.69 344.45 599.95 337.56 599.68 330.7 598.87 323.87 597.83 317.07 596.26 310.34 594.18 303.66 591.88 297.07 589.08 290.62 585.83 284.26 582.37 278.07 578.49 272.1 574.21 266.28 569.78 260.72 564.99 255.48 559.89 250.45 554.67 245.77 549.18 241.52 543.45 237.51 537.64 233.95 531.64 230.87 525.47 228.06 519.26 225.73 512.91 223.92 506.46 222.33 499.98 221.22 493.43 220.58 486.82 220.08 480.21 219.98 473.55 220.25 466.88 220.52 460.21 221.06 453.53 221.82 446.87 222.42 440.2 223.14 433.56 223.94 426.95 224.43 420.34 224.91 413.76 225.36 407.24 225.42 400.71 225.43 394.39 225.4 388.27 224.83 379.19 223.61 362.02 223.22 353.93 222.96 346.01 224.17 331.1 225.86 324.1 228.27 317.22 235.83 304.25 240.97 298.13 244.79 294.03 249.04 290.08 253.68 286.27 258.54 282.37 263.76 278.61 269.27 274.97 274.95 271.22 280.89 267.6 287.04 264.09 293.31 260.46 299.74 256.94 306.3 253.55 312.93 250.03 319.65 246.62 326.43 243.35 333.25 239.95 340.11 236.69 346.97 233.59 353.85 230.38 360.74 227.35 367.58 224.51 374.45 221.6 381.27 218.91 388.02 216.48 394.78 214.02 401.47 211.84 408.05 209.98" stroke-dasharray="10 4" transform="rotate(36.36, 400, 400)" opacity="0.39"></path><path d="M401.37 220.91C410.37 218.46 426.98 215.51 434.53 215.06 444.34 215.04 452.9 216.63 460.19 219.73 467.47 223.34 473.67 228.44 478.98 234.85 484.76 241.71 490.24 249.77 495.84 258.81 502.8 268.17 510.64 278.38 519.66 289.21 530.53 300.24 542.61 311.78 555.45 323.63 568.99 335.57 581.89 347.76 592.9 360 597.71 366.13 601.68 372.26 604.67 378.38 606.86 384.5 607.91 390.59 607.74 396.63 606.67 402.68 604.44 408.53 601.15 414.17 597.16 419.8 592.33 425.23 586.81 430.43 574.86 440.82 561.76 450.31 548.65 458.85 536.82 467.38 526.15 475.02 516.88 481.74 509.62 488.58 503.44 494.66 497.92 500.04 493.62 505.78 489.13 511.06 484.04 515.98 479.24 521.57 473.3 527.05 466.09 532.45 458.78 538.72 450.11 545.01 440.14 551.19 435.12 554.57 429.79 557.89 424.18 561.11 418.55 564.46 412.64 567.68 406.47 570.7 400.3 573.77 394.03 576.52 387.68 578.92 381.33 581.29 374.92 583.24 368.47 584.78 355.61 587.49 342.62 588.3 329.75 587.2 317.05 585.35 304.59 581.57 292.7 576.06 281.23 569.85 270.6 562.08 261.18 553.05 252.53 543.57 245.39 533.07 240.02 521.84 235.54 510.4 232.82 498.42 231.86 486.14 231.28 473.82 231.93 461.29 233.56 448.75 234.15 442.49 234.83 436.22 235.59 429.98 236.05 423.74 236.51 417.52 236.95 411.35 237.03 402.17 236.54 384.73 236.1 376.47 234.9 365.54 234.4 355.32 234.86 345.84 235.44 336.24 237.59 327.28 241.36 319 245.9 310.49 252.2 302.53 260.04 295.15 268.68 287.42 278.64 280.14 289.56 273.35 300.97 266.14 313.07 259.34 325.5 253.07 338.17 246.38 351 240.25 363.73 234.85 370.12 232.06 376.48 229.49 382.76 227.15 389.05 224.79 395.26 222.7 401.36 220.91" stroke-dasharray="11 1" transform="rotate(40.400000000000006, 400, 400)" opacity="0.43"></path><path d="M394.55 231.84C405.79 228.51 416.03 226.59 425.2 226.08 434.33 225.91 442.41 227.23 449.46 229.94 456.61 233.09 462.97 237.62 468.74 243.37 475.07 249.52 481.35 256.8 487.9 265.02 495.68 273.53 504.3 282.85 513.87 292.8 524.9 302.92 536.78 313.56 549.03 324.52 561.62 335.57 573.35 346.87 583.18 358.23 591.16 369.64 595.73 381.06 596.16 392.31 593.49 403.57 586.95 414.11 577.46 423.85 566.63 433.57 554.52 442.49 542.13 450.57 530.59 458.67 519.81 465.98 510.11 472.5 502.06 479.17 494.96 485.18 488.55 490.6 483.32 496.36 478.13 501.74 472.62 506.79 467.53 512.44 461.63 517.96 454.74 523.37 447.87 529.51 439.84 535.61 430.66 541.52 421.43 548.06 411.07 554.24 399.69 559.77 388.31 565.47 376.51 569.87 364.54 572.81 352.64 575.4 340.65 576.28 328.81 575.44 317.19 573.99 305.88 570.79 295.2 566 284.97 560.61 275.62 553.78 267.47 545.74 260.03 537.29 254.01 527.84 249.63 517.65 245.97 507.25 243.88 496.28 243.34 484.95 243.02 473.56 243.76 461.92 245.35 450.21 246.25 438.5 247.37 426.75 248.54 415.1 248.35 403.45 248.1 392.43 247.89 382.09 246.78 371.71 246.26 361.96 246.56 352.86 246.85 343.65 248.48 335.01 251.54 326.97 255.18 318.72 260.42 310.97 267.09 303.74 274.46 296.2 283.1 289.07 292.72 282.42 302.83 275.39 313.67 268.78 324.93 262.68 336.44 256.24 348.18 250.34 359.87 245.16 371.66 239.8 383.29 235.29 394.54 231.84" stroke-dasharray="4 8" transform="rotate(44.44, 400, 400)" opacity="0.47"></path><path d="M388.23 242.77C398.56 239.58 408.06 237.71 416.66 237.12 425.25 236.83 433.02 237.9 440.01 240.25 447.17 242.97 453.8 246.96 460.1 252.08 466.98 257.55 473.96 264.07 481.3 271.47 489.69 279.14 498.8 287.6 508.65 296.65 519.58 305.87 531.03 315.6 542.52 325.66 554.08 335.8 564.64 346.21 573.33 356.7 580.33 367.22 584.27 377.79 584.57 388.24 582.21 398.68 576.43 408.48 567.98 417.58 558.26 426.66 547.19 435.05 535.62 442.71 524.56 450.39 513.92 457.41 504.04 463.75 495.46 470.23 487.67 476.18 480.54 481.61 474.46 487.36 468.56 492.78 462.57 497.91 457.07 503.55 451.02 509.05 444.26 514.4 437.6 520.37 430.02 526.23 421.49 531.85 412.93 537.99 403.39 543.73 392.94 548.84 382.48 554.09 371.67 558.13 360.73 560.86 349.87 563.31 338.98 564.22 328.3 563.61 317.85 562.49 307.78 559.8 298.39 555.67 289.43 551.04 281.36 545.07 274.45 537.97 268.17 530.5 263.19 522.07 259.7 512.89 256.77 503.51 255.22 493.54 255 483.17 254.88 472.74 255.66 462 257.17 451.14 258 440.27 259.03 429.3 260.12 418.38 259.99 407.45 259.82 397.07 259.69 387.28 258.7 377.45 258.21 368.16 258.41 359.45 258.48 350.64 259.7 342.33 262.15 334.55 265.03 326.59 269.31 319.06 274.9 312.01 281.06 304.69 288.43 297.76 296.76 291.28 305.54 284.48 315.09 278.08 325.11 272.19 335.38 266.02 345.95 260.38 356.57 255.43 367.27 250.34 377.9 246.05 388.23 242.77" stroke-dasharray="8 3" transform="rotate(48.48, 400, 400)" opacity="0.51"></path><path d="M383.01 253.7C392.48 250.68 401.3 248.86 409.44 248.22 417.61 247.82 425.17 248.66 432.2 250.67 439.43 253 446.37 256.48 453.17 260.99 460.5 265.81 468.04 271.6 475.93 278.22 484.69 285.07 494.02 292.67 503.86 300.84 514.45 309.16 525.27 317.99 535.88 327.14 546.35 336.38 555.74 345.89 563.34 355.51 569.43 365.16 572.8 374.88 572.98 384.53 570.92 394.17 565.85 403.26 558.38 411.74 549.74 420.21 539.73 428.09 529.08 435.34 518.66 442.63 508.37 449.35 498.56 455.51 489.73 461.81 481.5 467.66 473.83 473.06 467.07 478.77 460.56 484.18 454.1 489.31 448.14 494.89 441.86 500.31 435.12 505.55 428.52 511.3 421.24 516.89 413.22 522.19 405.21 527.91 396.4 533.22 386.84 537.91 377.27 542.72 367.46 546.41 357.59 548.93 347.8 551.22 338.07 552.14 328.61 551.71 319.38 550.87 310.58 548.63 302.49 545.09 294.78 541.14 287.95 535.96 282.21 529.73 276.99 523.19 272.96 515.72 270.24 507.52 267.93 499.15 266.81 490.16 266.83 480.75 266.84 471.27 267.62 461.45 269.02 451.44 269.76 441.43 270.7 431.26 271.71 421.08 271.62 410.9 271.53 401.16 271.49 391.93 270.65 382.67 270.23 373.86 270.39 365.56 270.33 357.17 271.24 349.21 273.2 341.71 275.42 334.06 278.88 326.8 283.5 319.96 288.56 312.9 294.74 306.2 301.85 299.93 309.34 293.39 317.59 287.25 326.39 281.6 335.4 275.72 344.78 270.36 354.3 265.67 363.9 260.86 373.53 256.81 383.01 253.7" stroke-dasharray="8 6" transform="rotate(52.52, 400, 400)" opacity="0.54"></path><path d="M379.36 264.63C388.02 261.78 396.24 260.02 404 259.34 411.79 258.86 419.21 259.5 426.3 261.2 433.6 263.16 440.78 266.16 447.95 270.11 455.59 274.31 463.47 279.41 471.67 285.27 480.52 291.33 489.79 298.09 499.35 305.4 509.38 312.85 519.42 320.78 529.06 329.05 538.41 337.39 546.66 346.01 553.22 354.77 558.45 363.56 561.31 372.44 561.39 381.3 559.6 390.16 555.19 398.56 548.65 406.43 541.05 414.31 532.12 421.7 522.44 428.55 512.8 435.45 503.05 441.88 493.55 447.84 484.73 453.93 476.32 459.64 468.36 464.98 461.13 470.58 454.16 475.92 447.33 481 440.96 486.45 434.45 491.73 427.67 496.79 421.06 502.28 413.99 507.56 406.4 512.52 398.84 517.82 390.68 522.7 381.96 526.97 373.24 531.35 364.4 534.71 355.61 537.01 346.88 539.13 338.31 540.05 330.09 539.75 322.05 539.14 314.5 537.29 307.66 534.28 301.14 530.93 295.45 526.48 290.79 521.06 286.51 515.37 283.3 508.81 281.23 501.55 279.43 494.13 278.64 486.11 278.81 477.64 278.89 469.1 279.63 460.19 280.89 451.05 281.53 441.9 282.36 432.55 283.3 423.12 283.25 413.69 283.24 404.62 283.3 395.97 282.61 387.29 282.29 378.99 282.46 371.12 282.35 363.17 283.04 355.59 284.62 348.41 286.33 341.11 289.1 334.14 292.89 327.57 296.99 320.81 302.1 314.39 308.09 308.36 314.37 302.13 321.41 296.28 329.02 290.9 336.81 285.35 345.03 280.29 353.49 275.87 362.02 271.36 370.69 267.57 379.36 264.63" stroke-dasharray="8 5" transform="rotate(56.56, 400, 400)" opacity="0.58"></path><path d="M377.62 275.56C385.52 272.89 393.19 271.21 400.58 270.5 408.02 269.96 415.28 270.43 422.38 271.84 429.67 273.46 436.97 276.03 444.34 279.44 452.09 283.07 460.07 287.5 468.29 292.65 476.98 297.96 485.93 303.92 494.98 310.4 504.28 316.99 513.41 324.06 522 331.45 530.23 338.91 537.37 346.66 542.97 354.58 547.42 362.51 549.8 370.58 549.81 378.66 548.27 386.75 544.47 394.46 538.8 401.75 532.2 409.05 524.33 415.94 515.66 422.39 506.9 428.89 497.86 435.02 488.86 440.74 480.3 446.6 471.97 452.13 463.97 457.35 456.52 462.79 449.3 467.99 442.25 472.95 435.6 478.21 428.91 483.29 422.12 488.13 415.51 493.3 408.62 498.25 401.41 502.85 394.24 507.72 386.67 512.18 378.75 516.04 370.82 520 362.91 523.03 355.17 525.1 347.47 527.05 340.02 527.93 332.98 527.75 326.08 527.33 319.7 525.81 314.01 523.26 308.57 520.45 303.92 516.64 300.18 511.96 296.71 507.06 294.18 501.35 292.62 494.98 291.22 488.47 290.66 481.37 290.92 473.81 291.02 466.19 291.67 458.18 292.77 449.91 293.31 441.62 294.03 433.09 294.88 424.43 294.88 415.77 294.95 407.39 295.1 399.34 294.58 391.27 294.39 383.5 294.6 376.09 294.5 368.62 295.07 361.45 296.38 354.64 297.71 347.72 299.93 341.1 303.03 334.83 306.33 328.42 310.53 322.32 315.52 316.59 320.73 310.7 326.66 305.18 333.18 300.11 339.83 294.9 346.97 290.17 354.43 286.04 361.94 281.84 369.71 278.31 377.62 275.56" stroke-dasharray="11 5" transform="rotate(60.599999999999994, 400, 400)" opacity="0.62"></path><path d="M377.95 286.5C385.14 284.01 392.27 282.42 399.29 281.71 406.35 281.12 413.39 281.43 420.39 282.59 427.55 283.91 434.8 286.07 442.15 288.99 449.78 292.08 457.61 295.9 465.59 300.37 473.86 304.97 482.26 310.16 490.6 315.85 499.03 321.63 507.16 327.85 514.67 334.41 521.79 341.02 527.89 347.92 532.58 355 536.32 362.11 538.28 369.37 538.22 376.7 536.91 384.03 533.67 391.07 528.82 397.77 523.16 404.49 516.32 410.88 508.69 416.92 500.88 423.01 492.66 428.8 484.35 434.25 476.28 439.82 468.28 445.13 460.48 450.16 453.07 455.38 445.82 460.38 438.76 465.15 432 470.16 425.27 474.98 418.56 479.54 412 484.37 405.31 488.95 398.48 493.18 391.7 497.61 384.69 501.64 377.5 505.11 370.32 508.66 363.29 511.37 356.53 513.22 346.59 515.4 328.9 514.82 321.57 512.06 315.19 508.1 306.54 495.83 304.37 487.83 303.25 482.17 302.85 475.95 303.12 469.27 303.19 462.54 303.73 455.42 304.66 447.99 305.09 440.56 305.71 432.86 306.47 424.98 306.51 417.1 306.64 409.42 306.89 401.99 306.54 394.56 306.48 387.35 306.77 380.44 306.74 373.48 307.26 366.78 308.39 360.37 309.46 353.89 311.28 347.66 313.84 341.75 316.5 335.73 319.94 329.99 324.1 324.61 328.39 319.11 333.36 313.94 338.91 309.21 344.55 304.38 350.7 300 357.25 296.17 363.83 292.3 370.76 289.04 377.95 286.5" stroke-dasharray="9 8" transform="rotate(64.64, 400, 400)" opacity="0.66"></path><path d="M380.33 297.43C386.84 295.14 393.42 293.66 400.01 292.95 406.64 292.34 413.35 292.52 420.11 293.45 426.98 294.5 433.99 296.29 441.09 298.77 448.37 301.36 455.8 304.62 463.29 308.45 470.94 312.38 478.59 316.86 486.07 321.79 493.53 326.79 500.6 332.21 507.04 337.96 513.09 343.75 518.2 349.82 522.07 356.11 525.15 362.4 526.74 368.88 526.63 375.47 525.53 382.05 522.81 388.42 518.71 394.53 513.93 400.66 508.1 406.54 501.5 412.15 494.67 417.79 487.38 423.21 479.88 428.35 472.47 433.59 465.02 438.61 457.65 443.4 450.53 448.33 443.51 453.06 436.63 457.58 429.98 462.27 423.39 466.78 416.87 471.03 410.49 475.47 404.08 479.66 397.66 483.5 391.28 487.5 384.83 491.1 378.35 494.18 371.87 497.33 365.66 499.72 359.78 501.36 351.2 503.32 336.31 502.98 330.3 500.69 325.07 497.4 318.12 487 316.42 480.12 315.32 472.56 315.59 455.02 316.56 445.3 316.87 438.71 317.38 431.83 318.06 424.74 318.13 417.65 318.33 410.69 318.66 403.92 318.47 397.15 318.56 390.54 318.94 384.17 319.01 377.77 319.55 371.57 320.58 365.62 321.5 359.61 323.04 353.83 325.2 348.33 327.38 342.75 330.23 337.42 333.71 332.43 337.26 327.35 341.42 322.58 346.14 318.22 350.91 313.79 356.19 309.77 361.92 306.27 367.66 302.74 373.81 299.76 380.33 297.43" stroke-dasharray="8 5" transform="rotate(68.68, 400, 400)" opacity="0.70"></path><path d="M384.53 308.36C396.23 304.26 408.59 303.05 421.19 304.41 434.11 306.16 447.64 310.47 461.13 316.88 474.86 323.6 488.02 332.21 499.09 342.13 508.72 352.16 514.56 363.3 515.04 375 512.48 386.69 504.9 397.84 494.05 408.08 482.21 418.47 468.82 428.2 455.25 437.03 442.2 446.3 429.24 454.95 416.84 462.57 404.79 470.76 392.8 477.91 381.19 483.25 369.59 488.78 359.37 491.53 350.96 491.59 342.68 491.29 336.44 488.13 332.6 482.49 328.83 476.46 327.22 468.15 327.67 458.12 327.25 447.95 327.97 436.31 329.65 423.73 329.33 411.14 329.78 398.83 331.07 387.28 331.23 375.64 333.14 364.59 336.96 354.57 340.63 344.33 346.61 335 354.66 327.14 362.76 319.09 372.82 312.59 384.53 308.36" stroke-dasharray="3 0" transform="rotate(72.72, 400, 400)" opacity="0.73"></path><path d="M390.16 319.29C400.54 315.62 411.71 314.45 423.2 315.49 434.86 316.81 446.98 320.33 458.84 325.67 470.67 331.24 481.74 338.48 490.78 346.94 498.59 355.47 503.2 365.08 503.46 375.32 501.42 385.55 495.26 395.46 486.29 404.71 476.41 414.06 464.92 422.93 452.99 431.03 441.26 439.45 429.43 447.3 418.08 454.16 406.96 461.43 396.05 467.7 385.78 472.32 375.51 477.08 366.74 479.45 359.72 479.51 350.15 478.06 340.46 463.61 339.95 451.6 339.37 442.97 339.83 432.95 341.23 421.97 341.06 410.98 341.7 400.11 343.13 389.8 343.58 379.43 345.48 369.52 348.93 360.51 352.12 351.35 357.23 343 364.16 335.97 371.05 328.83 379.77 323.06 390.16 319.29" stroke-dasharray="5 8" transform="rotate(76.76, 400, 400)" opacity="0.77"></path><path d="M396.7 330.22C405.74 327.01 415.55 325.9 425.61 326.68 435.76 327.63 446.18 330.44 456.17 334.81 466 339.32 474.97 345.3 482.1 352.37 488.26 359.49 491.8 367.62 491.87 376.41 490.29 385.2 485.42 393.84 478.22 401.99 470.23 410.23 460.72 418.12 450.62 425.36 440.52 432.83 430.16 439.76 420.15 445.79 410.26 452.09 400.62 457.47 391.69 461.39 382.76 465.41 375.28 467.39 369.4 467.45 361.32 466.33 352.92 454.51 352.17 444.53 351.46 437.35 351.67 428.9 352.82 419.52 352.77 410.14 353.54 400.74 355.07 391.75 355.8 382.74 357.73 374.07 360.92 366.15 363.81 358.15 368.26 350.85 374.24 344.71 380.14 338.52 387.66 333.51 396.7 330.22" stroke-dasharray="9 1" transform="rotate(80.80000000000001, 400, 400)" opacity="0.81"></path><path d="M403.55 341.15C411.2 338.42 419.48 337.42 427.91 337.97 436.34 338.62 444.87 340.81 452.89 344.29 460.7 347.85 467.67 352.65 473.05 358.41 477.72 364.2 480.34 370.89 480.28 378.24 479.11 385.59 475.38 392.9 469.8 399.89 463.61 406.93 456.07 413.73 447.89 419.98 439.61 426.38 430.97 432.32 422.53 437.45 414.13 442.75 405.93 447.23 398.36 450.46 387.66 454.56 372.77 454.54 368.58 450.6 365.31 445.09 363.5 427.7 364.41 416.45 364.45 408.67 365.3 400.8 366.87 393.21 367.82 385.61 369.77 378.26 372.73 371.53 375.4 364.76 379.32 358.58 384.46 353.38 389.5 348.16 395.89 343.94 403.55 341.15" stroke-dasharray="3 5" transform="rotate(84.84, 400, 400)" opacity="0.85"></path><path d="M410.07 352.08C422.51 347.67 436.57 348.78 448.81 354.07 460.32 359.55 468.25 368.95 468.69 380.76 466.35 392.56 456.93 404.61 444.58 414.85 431.73 425.42 417.49 434.5 405.19 439.53 392.89 444.73 384.52 444.46 380.48 439.67 375.72 434.67 374.1 425.26 376 412.88 375.64 400.49 378.54 387.59 384.13 376.68 388.86 365.71 397.62 356.64 410.07 352.08" stroke-dasharray="8 5" transform="rotate(88.88, 400, 400)" opacity="0.89"></path><path d="M415.65 363.01C425.1 359.62 435.3 360.33 443.79 364.16 451.77 368.07 457.04 374.98 457.11 383.88 455.64 392.77 449.2 402.01 440.49 409.92 431.37 417.98 420.9 424.86 411.54 428.6 398.85 432.32 387.16 421.58 387.58 408.89 387.53 399.65 390.22 389.92 394.96 381.64 399.15 373.35 406.2 366.49 415.65 363.01" stroke-dasharray="8 4" transform="rotate(92.92, 400, 400)" opacity="0.92"></path><path d="M419.79 373.94C432.51 369.38 445.1 375.57 445.52 387.5 443.29 399.42 429.45 412.79 416.81 417.67 404.16 422.71 397.16 416.86 399.17 404.63 398.79 392.38 407.05 378.66 419.79 373.94" stroke-dasharray="10 2" transform="rotate(96.96, 400, 400)" opacity="0.96"></path></g></svg>