<svg width="747" height="654" viewBox="0 0 747 654" fill="none" xmlns="http://www.w3.org/2000/svg">
<path d="M128.334 280.001H180.531C177.625 287.725 175 296.569 175 303.334C175 329.069 195.932 350.001 221.667 350.001C247.401 350.001 268.333 329.069 268.333 303.334C268.333 296.568 265.708 287.725 262.802 280.001H314.999C321.452 280.001 326.666 274.787 326.666 268.334V198.334C326.666 194.287 324.567 190.542 321.124 188.407C317.671 186.261 313.39 186.094 309.77 187.891C301.359 192.105 286.077 198.334 280 198.334C267.13 198.334 256.666 187.87 256.666 175.001C256.666 162.131 267.13 151.667 280 151.667C286.057 151.667 301.349 157.896 309.786 162.11C313.417 163.896 317.682 163.709 321.151 161.594C324.567 159.459 326.666 155.714 326.666 151.667V81.6672C326.666 75.2141 321.453 70.0005 315 70.0005H128.333C121.88 70.0005 116.666 75.2141 116.666 81.6672V268.334C116.666 274.787 121.881 280.001 128.334 280.001ZM140 93.3339H303.334V133.865C295.61 130.958 286.766 128.333 280 128.333C254.266 128.333 233.334 149.265 233.334 175C233.334 200.735 254.266 221.667 280 221.667C286.766 221.667 295.61 219.042 303.334 216.135V256.666H245C240.953 256.666 237.209 258.765 235.073 262.208C232.938 265.65 232.75 269.942 234.558 273.562C238.771 281.973 245 297.255 245 303.333C245 316.202 234.521 326.666 221.667 326.666C208.797 326.666 198.334 316.202 198.334 303.333C198.334 297.275 204.563 281.983 208.766 273.546C210.563 269.916 210.375 265.624 208.25 262.181C206.125 258.765 202.381 256.666 198.334 256.666H140L140 93.3339Z" fill="#3419AB"/>
<path d="M396.667 221.667C403.433 221.667 412.276 219.042 420 216.136V268.333C420 274.786 425.214 280 431.667 280H618.334C624.787 280 630 274.786 630 268.333V81.6667C630 75.2136 624.787 70 618.334 70H566.136C569.043 62.276 571.668 53.432 571.668 46.6667C571.668 20.932 550.736 0 525.001 0C499.266 0 478.334 20.932 478.334 46.6667C478.334 53.4323 480.959 62.276 483.865 70H431.668C425.215 70 420.001 75.2136 420.001 81.6667V133.864C412.277 130.958 403.433 128.333 396.668 128.333C370.933 128.333 350.001 149.265 350.001 174.999C350.001 200.734 370.933 221.666 396.668 221.666L396.667 221.667ZM396.667 151.667C402.724 151.667 418.016 157.896 426.454 162.11C430.084 163.896 434.35 163.709 437.818 161.594C441.235 159.459 443.334 155.714 443.334 151.667V93.3338H501.667C505.714 93.3338 509.459 91.2349 511.594 87.7922C513.73 84.3496 513.917 80.0578 512.11 76.4381C507.896 68.0266 501.667 52.7448 501.667 46.6674C501.667 33.8133 512.131 23.3341 525.001 23.3341C537.855 23.3341 548.334 33.8133 548.334 46.6674C548.334 52.7248 542.105 68.0168 537.891 76.4541C536.094 80.0844 536.282 84.376 538.407 87.8186C540.542 91.2353 544.287 93.3343 548.334 93.3343H606.667V256.668H443.334V198.334C443.334 194.287 441.235 190.543 437.792 188.407C434.35 186.261 430.058 186.095 426.438 187.892C418.027 192.105 402.745 198.334 396.668 198.334C383.798 198.334 373.334 187.871 373.334 175.001C373.334 162.131 383.797 151.667 396.667 151.667Z" fill="#3419AB"/>
<path d="M735 373.334H525C485.542 373.334 476.886 356.031 453.766 309.787C451.792 305.829 447.755 303.334 443.333 303.334C424.584 303.334 396.667 315.761 396.667 350.001C396.667 369.402 400.005 385.517 403.281 396.668H350C350 362.428 322.083 350.001 303.333 350.001C298.911 350.001 294.875 352.496 292.891 356.454C269.781 402.699 261.125 420.001 221.667 420.001H11.6667C5.2136 420.001 0 425.214 0 431.667V641.667C0 648.12 5.2136 653.334 11.6667 653.334H420C439.297 653.334 455 637.631 455 618.334C455 614.24 454.286 610.308 453.005 606.667H735.005C741.458 606.667 746.672 601.454 746.672 595.001V385.001C746.672 378.548 741.458 373.334 735.005 373.334H735ZM618.334 396.667V583.334H571.667V396.667H618.334ZM420 420.001C424.047 420.001 427.792 417.902 429.927 414.459C432.063 411.016 432.25 406.725 430.443 403.105C430.339 402.907 420 381.876 420 350.001C420 334.626 429.344 329.34 436.568 327.542C458.35 370.824 473.938 396.668 525 396.668H548.334V583.334H487.844C489.162 579.673 490.001 575.787 490.001 571.668C490.001 567.574 489.287 563.642 488.006 560.001H490.001C509.298 560.001 525.001 544.298 525.001 525.001C525.001 505.704 509.298 490.001 490.001 490.001H488.006C489.287 486.36 490.001 482.428 490.001 478.334C490.001 459.037 474.298 443.334 455.001 443.334H343.386C345.23 437.069 347.027 429.1 348.297 420.001L420 420.001ZM186.667 443.334V630.001H140V443.334H186.667ZM23.3337 443.334H116.667V630.001H23.3337V443.334ZM420 630.001H210V443.334H221.667C272.73 443.334 288.328 417.479 310.11 374.173C317.157 375.923 326.667 381.141 326.667 396.667C326.667 428.178 316.318 449.61 316.224 449.787C314.417 453.402 314.605 457.699 316.74 461.141C318.876 464.568 322.62 466.667 326.667 466.667H455C461.438 466.667 466.667 471.897 466.667 478.334C466.667 484.772 461.438 490.001 455 490.001H373.334C366.881 490.001 361.667 495.214 361.667 501.667C361.667 508.12 366.881 513.334 373.334 513.334H490C496.438 513.334 501.667 518.563 501.667 525.001C501.667 531.438 496.438 536.667 490 536.667H373.334C366.881 536.667 361.667 541.881 361.667 548.334C361.667 554.787 366.881 560.001 373.334 560.001H455C461.438 560.001 466.667 565.23 466.667 571.667C466.667 578.105 461.438 583.334 455 583.334H373.334C366.881 583.334 361.667 588.548 361.667 595.001C361.667 601.454 366.881 606.667 373.334 606.667H420C426.438 606.667 431.667 611.897 431.667 618.334C431.667 624.772 426.438 630.001 420 630.001ZM723.334 583.334H641.667V396.667H723.334V583.334Z" fill="#3419AB"/>
</svg>
