<svg xmlns="http://www.w3.org/2000/svg" data-name="Layer 3" viewBox="0 0 64 64"><path fill="#d85b53" d="M42.2,30.02l-1.847-.371c-.025-.06-.05-.122-.077-.183L41.317,27.9a1,1,0,0,0-.125-1.261l-2.828-2.828a1,1,0,0,0-1.262-.125l-1.568,1.045c-.061-.027-.122-.052-.184-.078L34.98,22.8A1,1,0,0,0,34,22H30a1,1,0,0,0-.98.8l-.37,1.846c-.062.026-.123.051-.184.078L26.9,23.683a1,1,0,0,0-1.262.125l-2.828,2.828a1,1,0,0,0-.125,1.261l1.045,1.569c-.027.061-.052.123-.077.183L21.8,30.02A1,1,0,0,0,21,31v4a1,1,0,0,0,.8.98l1.847.371c.025.06.05.122.077.183L22.683,38.1a1,1,0,0,0,.125,1.261l2.828,2.828a1,1,0,0,0,1.262.125l1.568-1.045c.061.027.122.052.184.078l.37,1.846A1,1,0,0,0,30,44h4a1,1,0,0,0,.98-.8l.37-1.846c.062-.026.123-.051.184-.078L37.1,42.317a1,1,0,0,0,1.262-.125l2.828-2.828a1,1,0,0,0,.125-1.261l-1.045-1.569c.027-.061.052-.123.077-.183L42.2,35.98A1,1,0,0,0,43,35V31A1,1,0,0,0,42.2,30.02ZM41,34.181l-1.593.318a1,1,0,0,0-.754.671,6.963,6.963,0,0,1-.417,1,1,1,0,0,0,.059,1.009l.9,1.354L37.529,40.2l-1.354-.9a1,1,0,0,0-1.008-.06,7.082,7.082,0,0,1-1,.417,1,1,0,0,0-.67.754L33.18,42H30.82L30.5,40.407a1,1,0,0,0-.67-.754,7.082,7.082,0,0,1-1-.417,1,1,0,0,0-1.008.06l-1.354.9L24.8,38.529l.9-1.354a1,1,0,0,0,.059-1.009,6.963,6.963,0,0,1-.417-1,1,1,0,0,0-.754-.671L23,34.181V31.819l1.593-.318a1,1,0,0,0,.754-.671,6.963,6.963,0,0,1,.417-1,1,1,0,0,0-.059-1.009l-.9-1.354,1.67-1.669,1.354.9a1,1,0,0,0,1.008.06,7.082,7.082,0,0,1,1-.417,1,1,0,0,0,.67-.754L30.82,24h2.36l.319,1.593a1,1,0,0,0,.67.754,7.082,7.082,0,0,1,1,.417,1,1,0,0,0,1.008-.06l1.354-.9,1.67,1.669-.9,1.354a1,1,0,0,0-.059,1.009,6.963,6.963,0,0,1,.417,1,1,1,0,0,0,.754.671L41,31.819Z" class="color000000 svgShape"/><path fill="#d85b53" d="M32,27a6,6,0,1,0,6,6A6.006,6.006,0,0,0,32,27Zm0,10a4,4,0,1,1,4-4A4,4,0,0,1,32,37Z" class="color000000 svgShape"/><path fill="#d85b53" d="M60,30a3,3,0,0,0-2.816,2H46.947a15.149,15.149,0,0,0-.258-2H53a1,1,0,0,0,.707-.293L55.715,27.7A2.951,2.951,0,0,0,57,28a3,3,0,1,0-3-3,2.951,2.951,0,0,0,.3,1.285L52.586,28H46.125a15.03,15.03,0,0,0-.882-2H50a1,1,0,0,0,1-1V20.816A2.993,2.993,0,0,0,50,15a2.993,2.993,0,0,0-5.816-1H40a1,1,0,0,0-1,1v4.742a14.681,14.681,0,0,0-2-.88V12.414L38.715,10.7A2.964,2.964,0,0,0,40,11a3,3,0,1,0-3-3,2.973,2.973,0,0,0,.3,1.286l-2.008,2.007A1,1,0,0,0,35,12v6.3a14.929,14.929,0,0,0-2-.248V6.816a3,3,0,1,0-2,0V18.052c-.238.016-.474.016-.712.043-.435.048-.864.118-1.288.2V12a1,1,0,0,0-.293-.707L26.7,9.286A2.973,2.973,0,0,0,27,8a3,3,0,1,0-3,3,2.964,2.964,0,0,0,1.285-.3L27,12.414v6.453a14.851,14.851,0,0,0-2,.888V15a1,1,0,0,0-1-1H19.816A2.993,2.993,0,0,0,14,15a2.993,2.993,0,0,0-1,5.816V25a1,1,0,0,0,1,1h4.745a14.691,14.691,0,0,0-.881,2h-6.45L9.7,26.285A2.951,2.951,0,0,0,10,25a3,3,0,1,0-3,3,2.951,2.951,0,0,0,1.285-.3l2.008,2.008A1,1,0,0,0,11,30h6.305c-.062.308-.124.617-.166.932-.048.356-.082.712-.1,1.068H6.816a3,3,0,1,0,0,2H17.04a15.008,15.008,0,0,0,.275,2H11a1,1,0,0,0-.707.293L8.285,38.3A2.951,2.951,0,0,0,7,38a3,3,0,1,0,3,3,2.951,2.951,0,0,0-.3-1.285L11.414,38h6.46a15.03,15.03,0,0,0,.882,2H14a1,1,0,0,0-1,1v4.184a3,3,0,1,0,2,0V42h5.024a14.931,14.931,0,0,0,3.095,3.073,7.188,7.188,0,0,1,2.788,4.784A2.989,2.989,0,0,0,25.766,54a2.984,2.984,0,0,0,1.319,4.842,4.984,4.984,0,0,0,9.83,0A2.984,2.984,0,0,0,38.234,54a2.988,2.988,0,0,0-.142-4.143,7.151,7.151,0,0,1,2.778-4.775A14.926,14.926,0,0,0,43.951,42H49v3.184a3,3,0,1,0,2,0V41a1,1,0,0,0-1-1H45.237a15.052,15.052,0,0,0,.886-2h6.463L54.3,39.715A2.951,2.951,0,0,0,54,41a3,3,0,1,0,3-3,2.951,2.951,0,0,0-1.285.3l-2.008-2.008A1,1,0,0,0,53,36H46.671a14.837,14.837,0,0,0,.269-2H57.184A2.995,2.995,0,1,0,60,30Zm-3-6a1,1,0,1,1-1,1A1,1,0,0,1,57,24ZM40,7a1,1,0,1,1-1,1A1,1,0,0,1,40,7ZM23,8a1,1,0,1,1,1,1A1,1,0,0,1,23,8ZM6,25a1,1,0,1,1,1,1A1,1,0,0,1,6,25ZM7,42a1,1,0,1,1,1-1A1,1,0,0,1,7,42Zm7,7a1,1,0,1,1,1-1A1,1,0,0,1,14,49Zm36,0a1,1,0,1,1,1-1A1,1,0,0,1,50,49Zm8-8a1,1,0,1,1-1-1A1,1,0,0,1,58,41ZM51,18a1,1,0,1,1-1-1A1,1,0,0,1,51,18Zm-4-4a1,1,0,1,1-1,1A1,1,0,0,1,47,14Zm-6,2h3.184A3,3,0,0,0,47,18a3,3,0,0,0,2,2.816V24H43.986A14.978,14.978,0,0,0,42,21.82c-.322-.288-.661-.549-1-.806ZM32,3a1,1,0,1,1-1,1A1,1,0,0,1,32,3ZM17,14a1,1,0,1,1-1,1A1,1,0,0,1,17,14Zm-3,3a1,1,0,1,1-1,1A1,1,0,0,1,14,17Zm1,7V20.816A3,3,0,0,0,17,18a3,3,0,0,0,2.816-2H23v5.035A15.314,15.314,0,0,0,20.023,24ZM4,34a1,1,0,1,1,1-1A1,1,0,0,1,4,34ZM32,61a3,3,0,0,1-2.816-2h5.632A3,3,0,0,1,32,61Zm4-4H28a1,1,0,0,1,0-2h8a1,1,0,0,1,0,2Zm0-4H28a1,1,0,0,1,0-2h8a1,1,0,0,1,0,2Zm3.687-9.531a9.1,9.1,0,0,0-3.48,5.552C36.138,49.016,36.071,49,36,49H28c-.071,0-.138.016-.208.021A9.135,9.135,0,0,0,24.3,43.462a12.99,12.99,0,0,1,6.2-23.379A13,13,0,0,1,45,33,13.037,13.037,0,0,1,39.687,43.469ZM60,34a1,1,0,1,1,1-1A1,1,0,0,1,60,34Z" class="color000000 svgShape"/></svg>