<svg width="724" height="724" viewBox="0 0 724 724" fill="none" xmlns="http://www.w3.org/2000/svg">
<path d="M478.342 268.333H501.675V291.666H478.342V268.333Z" fill="#3419AB"/>
<path d="M303.342 221.666V198.333C277.607 198.333 256.675 219.265 256.675 244.999C256.675 270.734 277.607 291.666 303.342 291.666H455.008V268.333H303.342C290.472 268.333 280.008 257.869 280.008 244.999C280.008 232.129 290.472 221.666 303.342 221.666Z" fill="#3419AB"/>
<path d="M497.675 73.9993C461.284 37.6086 402.066 37.6086 365.68 73.9993L382.175 90.494C409.478 63.2073 453.878 63.2073 481.18 90.494L497.675 73.9993Z" fill="#3419AB"/>
<path d="M688.342 431.666C673.154 431.666 660.32 441.452 655.487 454.999H548.342V349.999C548.342 343.572 553.571 338.333 560.008 338.333H653.342C673.024 338.333 691.899 329.979 705.144 315.421C718.384 300.858 724.884 281.213 723.004 261.499C719.681 226.603 688.843 199.15 652.458 198.359C654.171 186.625 653.296 174.641 649.812 163.031C640.994 133.734 616.036 111.463 586.265 106.271C579.906 105.162 573.536 104.849 567.249 105.188C551.598 43.636 496.265 0 431.676 0C354.478 0 291.676 62.8027 291.676 140C291.676 144.12 291.874 148.25 292.238 152.354C257.426 156.578 228.249 180.458 216.113 212.354C203.524 210.359 190.717 209.589 177.848 210.208C82.0249 214.62 3.98092 293.192 0.154254 389.075C-2.24681 449.335 23.4769 505.392 70.7383 542.862C71.207 543.221 71.6029 543.69 72.056 544.075C63.7748 550.476 58.3373 560.403 58.3373 571.663C58.3373 580.658 61.8477 588.789 67.4362 594.997C61.8477 601.205 58.3373 609.335 58.3373 618.33C58.3373 637.627 74.04 653.33 93.3373 653.33H94.2696C99.9623 692.846 133.947 723.33 175.004 723.33H198.338C239.395 723.33 273.379 692.846 279.072 653.33H280.005C299.302 653.33 315.005 637.627 315.005 618.33C315.005 609.335 311.494 601.205 305.906 594.997C311.505 588.788 315.005 580.658 315.005 571.663C315.005 560.382 309.546 550.429 301.239 544.023C301.401 543.883 301.552 543.711 301.729 543.57C331.338 520.377 352.546 489.543 363.89 454.986H396.671V620.466C383.125 625.294 373.338 638.127 373.338 653.321C373.338 672.618 389.041 688.321 408.338 688.321C427.635 688.321 443.338 672.618 443.338 653.321C443.338 638.133 433.552 625.299 420.005 620.466V454.999H466.671C485.969 454.999 501.671 439.297 501.671 419.999V349.999C501.671 330.702 485.969 314.999 466.671 314.999H303.338C284.463 314.999 266.75 307.593 253.499 294.15C240.244 280.713 233.093 262.895 233.354 244.005C233.87 207.114 265.458 175.521 302.338 175.01H303.343C321.87 175.01 339.286 182.151 352.494 195.171C365.931 208.427 373.338 226.125 373.338 244.999H396.671C396.671 219.822 386.791 196.223 368.869 178.546C354.265 164.15 335.598 155.155 315.738 152.541C315.295 148.374 315.004 144.187 315.004 139.999C315.004 75.6711 367.342 23.3324 431.67 23.3324C485.092 23.3324 530.952 59.1244 544.394 109.796C535.269 113.015 526.697 117.776 519.134 124.135C500.618 139.708 490.004 162.495 490.004 186.666H513.337C513.337 169.4 520.92 153.124 534.149 141.994C547.565 130.713 564.706 126.207 582.253 129.265C603.414 132.952 621.174 148.843 627.461 169.749C631.122 181.915 630.831 194.155 626.607 206.103L621.091 221.666H650.831C676.029 221.666 697.534 240.135 699.785 263.713C701.045 277.082 696.821 289.879 687.873 299.718C679.04 309.421 666.461 314.999 653.337 314.999H560.004C540.706 314.999 525.004 330.702 525.004 349.999V527.146C511.457 531.974 501.67 544.807 501.67 560.001C501.67 579.298 517.373 595.001 536.67 595.001C555.968 595.001 571.67 579.298 571.67 560.001C571.67 544.813 561.884 531.979 548.337 527.146V478.334H655.482C660.311 491.881 673.144 501.667 688.337 501.667C707.634 501.667 723.337 485.965 723.337 466.667C723.337 447.37 707.634 431.667 688.337 431.667L688.342 431.666ZM408.342 664.999C401.904 664.999 396.675 659.76 396.675 653.333C396.675 646.906 401.904 641.666 408.342 641.666C414.779 641.666 420.008 646.906 420.008 653.333C420.008 659.76 414.779 664.999 408.342 664.999ZM280.008 559.999C286.446 559.999 291.675 565.239 291.675 571.666C291.675 578.093 286.446 583.333 280.008 583.333H93.3416C86.9042 583.333 81.6749 578.093 81.6749 571.666C81.6749 565.239 86.9042 559.999 93.3416 559.999H280.008ZM198.342 699.999H175.008C146.847 699.999 123.279 679.921 117.852 653.333H255.492C250.065 679.921 226.498 699.999 198.336 699.999H198.342ZM280.008 629.999H93.3416C86.9042 629.999 81.6749 624.76 81.6749 618.333C81.6749 611.906 86.9042 606.666 93.3416 606.666H280.008C286.446 606.666 291.675 611.906 291.675 618.333C291.675 624.76 286.446 629.999 280.008 629.999ZM478.342 349.999V419.999C478.342 426.426 473.112 431.666 466.675 431.666H369.806C371.967 420.234 373.342 408.578 373.342 396.666C373.342 376.609 370.144 357.067 363.962 338.333H466.675C473.113 338.333 478.342 343.572 478.342 349.999ZM236.888 310.53C238.44 312.103 240.097 313.54 241.742 314.999H184.529C179.701 301.452 166.868 291.665 151.674 291.665C132.377 291.665 116.674 307.368 116.674 326.665C116.674 341.853 126.461 354.687 140.008 359.52V445.493C126.461 450.322 116.674 463.155 116.674 478.348C116.674 497.645 132.377 513.348 151.674 513.348C170.972 513.348 186.674 497.645 186.674 478.348C186.674 463.16 176.888 450.327 163.341 445.493V359.52C173.221 355.999 181.002 348.213 184.529 338.332H339.062C346.193 356.916 350.005 376.472 350.005 396.665C350.005 408.603 348.63 420.302 346.156 431.665H289.526C284.697 418.119 271.864 408.332 256.671 408.332C237.373 408.332 221.671 424.035 221.671 443.332C221.671 462.629 237.373 478.332 256.671 478.332C271.859 478.332 284.692 468.546 289.526 454.999H339.13C328.713 482.254 311.14 506.567 287.343 525.223C283.202 528.452 279.468 532.41 275.957 536.666H97.3173C93.5933 532.233 89.6403 528.077 85.2288 524.593C43.8795 491.786 21.3648 442.729 23.4635 389.993C26.802 306.123 95.0995 237.379 178.917 233.513C189.557 233.023 200.151 233.559 210.578 235.085C210.276 237.919 210.063 240.778 210.031 243.674C209.672 268.862 219.214 292.611 236.891 310.534L236.888 310.53ZM163.342 478.33C163.342 484.757 158.112 489.997 151.675 489.997C145.237 489.997 140.008 484.757 140.008 478.33C140.008 471.903 145.237 466.663 151.675 466.663C158.112 466.663 163.342 471.903 163.342 478.33ZM151.675 338.33C145.237 338.33 140.008 333.09 140.008 326.663C140.008 320.236 145.237 314.997 151.675 314.997C158.112 314.997 163.342 320.236 163.342 326.663C163.342 333.09 158.112 338.33 151.675 338.33ZM268.342 443.33C268.342 449.757 263.112 454.997 256.675 454.997C250.237 454.997 245.008 449.757 245.008 443.33C245.008 436.903 250.237 431.663 256.675 431.663C263.112 431.663 268.342 436.903 268.342 443.33ZM536.675 571.663C530.237 571.663 525.008 566.424 525.008 559.997C525.008 553.57 530.237 548.33 536.675 548.33C543.112 548.33 548.342 553.57 548.342 559.997C548.342 566.424 543.112 571.663 536.675 571.663ZM688.342 478.33C681.904 478.33 676.675 473.09 676.675 466.663C676.675 460.236 681.904 454.997 688.342 454.997C694.779 454.997 700.008 460.236 700.008 466.663C700.008 473.09 694.779 478.33 688.342 478.33Z" fill="#3419AB"/>
<path d="M77.9683 354.239L56.2337 345.734C53.0358 353.948 50.5982 362.51 48.9993 371.213L71.9473 375.426C73.265 368.192 75.2965 361.067 77.9683 354.239Z" fill="#3419AB"/>
<path d="M46.675 396.666C46.675 429.135 58.05 460.786 78.691 485.765L96.6697 470.91C79.4817 450.087 70.0084 423.722 70.0084 396.665L46.675 396.666Z" fill="#3419AB"/>
</svg>
