<svg width="700" height="666" viewBox="0 0 700 666" fill="none" xmlns="http://www.w3.org/2000/svg">
<path d="M11.6667 665H291.667C300.724 664.995 309.421 661.479 315.937 655.193C322.458 648.906 326.286 640.338 326.62 631.291C326.953 622.239 323.765 613.417 317.729 606.666C323.484 600.254 326.666 591.947 326.666 583.333C326.666 574.718 323.484 566.411 317.729 559.999C323.484 553.588 326.666 545.281 326.666 536.666C326.666 528.051 323.484 519.745 317.729 513.333C323.765 506.583 326.953 497.759 326.62 488.707C326.286 479.66 322.458 471.092 315.937 464.806C309.422 458.519 300.724 455.004 291.667 454.998H233.333V419.998C233.333 407.493 226.661 395.941 215.833 389.687C205.005 383.437 191.661 383.437 180.833 389.687C170.005 395.942 163.333 407.493 163.333 419.998V454.998H11.6667C5.224 454.998 0 460.222 0 466.665V653.332C0 656.426 1.22917 659.394 3.41667 661.582C5.60416 663.769 8.57293 665 11.6667 665ZM70 478.333H175C178.094 478.333 181.063 477.104 183.25 474.917C185.437 472.729 186.667 469.76 186.667 466.667V420C186.667 413.557 191.891 408.333 198.333 408.333C204.776 408.333 210 413.557 210 420V466.667C210 469.76 211.229 472.729 213.417 474.917C215.604 477.104 218.573 478.333 221.667 478.333H291.667C298.109 478.333 303.333 483.557 303.333 490C303.333 496.443 298.109 501.667 291.667 501.667H256.667V525H291.667C298.109 525 303.333 530.224 303.333 536.667C303.333 543.109 298.109 548.333 291.667 548.333H256.667V571.667H291.667C298.109 571.667 303.333 576.891 303.333 583.333C303.333 589.776 298.109 595 291.667 595H256.667V618.333H291.667C298.109 618.333 303.333 623.557 303.333 630C303.333 636.443 298.109 641.667 291.667 641.667H70V478.333ZM23.3333 478.333H46.6667V641.667H23.3333V478.333Z" fill="#3419AB"/>
<path d="M688.333 455H536.667V420C536.667 407.495 529.995 395.943 519.167 389.688C508.338 383.438 494.995 383.438 484.167 389.688C473.338 395.943 466.667 407.495 466.667 420V455H408.333C399.276 455.005 390.579 458.521 384.063 464.807C377.542 471.094 373.714 479.662 373.38 488.709C373.047 497.761 376.234 506.583 382.271 513.334C376.516 519.745 373.333 528.053 373.333 536.667C373.333 545.282 376.516 553.589 382.271 560.001C376.516 566.412 373.333 574.719 373.333 583.334C373.333 591.949 376.516 600.255 382.271 606.667C376.235 613.417 373.047 622.241 373.38 631.293C373.714 640.34 377.542 648.907 384.063 655.194C390.578 661.48 399.276 664.996 408.333 665.001H688.333C691.427 665.001 694.396 663.772 696.583 661.585C698.771 659.397 700 656.428 700 653.335V466.668C700 463.574 698.771 460.605 696.583 458.418C694.396 456.231 691.427 455.001 688.333 455.001V455ZM630 641.667H408.333C401.891 641.667 396.667 636.443 396.667 630C396.667 623.557 401.891 618.333 408.333 618.333H443.333V595H408.333C401.891 595 396.667 589.776 396.667 583.333C396.667 576.891 401.891 571.667 408.333 571.667H443.333V548.333H408.333C401.891 548.333 396.667 543.109 396.667 536.667C396.667 530.224 401.891 525 408.333 525H443.333V501.667H408.333C401.891 501.667 396.667 496.443 396.667 490C396.667 483.557 401.891 478.333 408.333 478.333H478.333C481.427 478.333 484.396 477.104 486.583 474.917C488.771 472.729 490 469.76 490 466.667V420C490 413.557 495.224 408.333 501.667 408.333C508.109 408.333 513.333 413.557 513.333 420V466.667C513.333 469.76 514.562 472.729 516.75 474.917C518.937 477.104 521.906 478.333 525 478.333H630V641.667ZM676.667 641.667H653.333V478.333H676.667V641.667Z" fill="#3419AB"/>
<path d="M278.187 140C273.129 140 268.65 143.255 267.088 148.063C265.525 152.87 267.239 158.136 271.327 161.104L308.849 188.37L294.51 232.495C292.953 237.297 294.666 242.557 298.755 245.526C302.843 248.495 308.374 248.495 312.463 245.526L349.993 218.261L387.524 245.526C391.613 248.495 397.144 248.495 401.232 245.526C405.321 242.557 407.034 237.297 405.477 232.495L391.138 188.37L428.66 161.104C432.748 158.135 434.462 152.87 432.899 148.063C431.337 143.255 426.858 140 421.8 140H375.426L361.087 95.9015C359.514 91.1151 355.045 87.8755 350.004 87.8755C344.967 87.8755 340.493 91.1151 338.92 95.9015L324.56 140H278.187ZM344.16 155.271L349.993 137.244L355.827 155.271C357.389 160.078 361.868 163.333 366.92 163.333H385.879L370.551 174.474C366.462 177.443 364.749 182.703 366.306 187.505L372.14 205.541L356.812 194.401H356.806C352.718 191.427 347.176 191.427 343.088 194.401L327.76 205.541L333.593 187.505C335.145 182.703 333.432 177.443 329.343 174.474L314.083 163.333H333.042C338.104 163.344 342.599 160.089 344.161 155.271H344.16Z" fill="#3419AB"/>
<path d="M338.333 0H361.667V46.6667H338.333V0Z" fill="#3419AB"/>
<path d="M338.333 291.667H361.667V338.333H338.333V291.667Z" fill="#3419AB"/>
<path d="M186.667 163.333H233.333V186.667H186.667V163.333Z" fill="#3419AB"/>
<path d="M469.84 163.333H516.507V186.667H469.84V163.333Z" fill="#3419AB"/>
<path d="M428.827 78.2505L461.827 45.2505L478.327 61.7505L445.327 94.7505L428.827 78.2505Z" fill="#3419AB"/>
<path d="M222.6 279.4L255.6 246.4L272.1 262.9L239.1 295.9L222.6 279.4Z" fill="#3419AB"/>
<path d="M222.6 61.7546L239.1 45.2546L272.1 78.2546L255.6 94.7546L222.6 61.7546Z" fill="#3419AB"/>
<path d="M422.84 265.173L439.34 248.673L472.34 281.673L455.84 298.173L422.84 265.173Z" fill="#3419AB"/>
</svg>
