<svg xmlns="http://www.w3.org/2000/svg" width="422.932" height="351.954" viewBox="0 0 422.932 351.954">
  <g id="Group_94" data-name="Group 94" transform="translate(-88.101 -191.167)">
    <g id="Group_32" data-name="Group 32">
      <g id="Group_31" data-name="Group 31">
        <g id="Group_30" data-name="Group 30">
          <g id="Group_23" data-name="Group 23">
            <g id="Group_19" data-name="Group 19">
              <path id="Path_12" data-name="Path 12" d="M147.766,362.775h49.514l-8.118,14.32h-41.4Z" fill="#0a6cc7"/>
            </g>
            <g id="Group_20" data-name="Group 20">
              <path id="Path_13" data-name="Path 13" d="M183.421,377.1H133.906l6.008-14.32h43.507Z" fill="#3f3d56"/>
            </g>
            <g id="Group_21" data-name="Group 21">
              <path id="Path_14" data-name="Path 14" d="M215.069,542.507l-48.86-173.592L173,367l49.4,175.508Z" fill="#3f3d56"/>
            </g>
            <g id="Group_22" data-name="Group 22">
              <path id="Path_15" data-name="Path 15" d="M95.7,542.507,145.1,367l6.792,1.916L103.03,542.507Z" fill="#3f3d56"/>
            </g>
          </g>
          <g id="Group_28" data-name="Group 28">
            <g id="Group_24" data-name="Group 24">
              <path id="Path_16" data-name="Path 16" d="M427.986,362.775H477.5l-8.117,14.32h-41.4Z" fill="#0a6cc7"/>
            </g>
            <g id="Group_25" data-name="Group 25">
              <path id="Path_17" data-name="Path 17" d="M463.641,377.1H414.127l6.007-14.32h43.507Z" fill="#34234d"/>
            </g>
            <g id="Group_26" data-name="Group 26">
              <path id="Path_18" data-name="Path 18" d="M495.289,542.507,446.43,368.915,453.221,367l49.4,175.508Z" fill="#3f3d56"/>
            </g>
            <g id="Group_27" data-name="Group 27">
              <path id="Path_19" data-name="Path 19" d="M375.918,542.507,425.319,367l6.792,1.916-48.86,173.592Z" fill="#3f3d56"/>
            </g>
          </g>
          <g id="Group_29" data-name="Group 29">
            <rect id="Rectangle_12" data-name="Rectangle 12" width="355.521" height="5.578" transform="translate(487.711 364.224) rotate(180)" fill="#3f3d56"/>
          </g>
        </g>
      </g>
    </g>
    <g id="Group_48" data-name="Group 48">
      <g id="Group_34" data-name="Group 34">
        <path id="Path_20" data-name="Path 20" d="M196.276,358.655h25.608l9.287-48.37a12.575,12.575,0,0,0-12.349-14.945h0a12.572,12.572,0,0,0-12.347,10.2Z" fill="#fff"/>
        <g id="Group_33" data-name="Group 33">
          <path id="Path_21" data-name="Path 21" d="M222.193,359.03H195.822l.086-.445,10.2-53.112a12.949,12.949,0,1,1,25.434,4.882Zm-25.463-.75h24.844l9.229-48.065a12.2,12.2,0,0,0-23.961-4.6Z" fill="#34234d"/>
        </g>
      </g>
      <g id="Group_35" data-name="Group 35">
        <path id="Path_22" data-name="Path 22" d="M222.246,347.85l-1.025-.2,7.272-37.88a9.847,9.847,0,1,0-19.341-3.714l-4.345,22.633-1.027-.2,4.347-22.632a10.891,10.891,0,1,1,21.391,4.109Z" fill="#34234d"/>
      </g>
      <g id="Group_37" data-name="Group 37">
        <rect id="Rectangle_13" data-name="Rectangle 13" width="67.815" height="4.315" transform="translate(201.774 354.34)" fill="#fff"/>
        <g id="Group_36" data-name="Group 36">
          <path id="Path_23" data-name="Path 23" d="M269.965,359.03H201.4v-5.065h68.567Zm-67.817-.75h67.067v-3.565H202.148Z" fill="#34234d"/>
        </g>
      </g>
      <g id="Group_38" data-name="Group 38">
        <rect id="Rectangle_14" data-name="Rectangle 14" width="55.623" height="1.045" transform="translate(213.967 353.816)" fill="#34234d"/>
      </g>
      <g id="Group_40" data-name="Group 40">
        <path id="Path_24" data-name="Path 24" d="M302.272,339.613h-146.2a7.62,7.62,0,0,1-7.579-6.827l-9.249-88.312a7.621,7.621,0,0,1,7.579-8.414h146.2a7.621,7.621,0,0,1,7.579,6.826l9.249,88.313A7.62,7.62,0,0,1,302.272,339.613Z" fill="#006bc0"/>
        <g id="Group_39" data-name="Group 39">
          <path id="Path_25" data-name="Path 25" d="M302.272,339.988h-146.2a7.978,7.978,0,0,1-7.952-7.163l-9.249-88.312a8,8,0,0,1,7.952-8.828h146.2a7.978,7.978,0,0,1,7.953,7.162l9.249,88.313a7.995,7.995,0,0,1-7.952,8.828ZM146.826,236.435a7.246,7.246,0,0,0-7.206,8l9.249,88.312a7.23,7.23,0,0,0,7.206,6.491h146.2a7.244,7.244,0,0,0,7.206-8l-9.249-88.313a7.23,7.23,0,0,0-7.207-6.49Z" fill="#34234d"/>
        </g>
      </g>
      <path id="Path_26" data-name="Path 26" d="M151.68,328.781l-8.869-84.68a4.035,4.035,0,0,1,4.014-4.457h146.2a4.028,4.028,0,0,1,4.016,3.616l8.956,85.521Z" fill="#34234d"/>
      <path id="Path_27" data-name="Path 27" d="M211.764,324.728h34.112l-.151-1.2H211.764Z" fill="#0a6cc7"/>
      <path id="Path_28" data-name="Path 28" d="M203.726,323.528H160.034l.152,1.2h43.54Z" fill="#0a6cc7"/>
      <path id="Path_29" data-name="Path 29" d="M258.814,244.865h34.113l-.152-1.2H258.814Z" fill="#0a6cc7"/>
      <path id="Path_30" data-name="Path 30" d="M250.776,243.665H207.084l.152,1.2h43.54Z" fill="#0a6cc7"/>
      <g id="Group_41" data-name="Group 41">
        <path id="Path_31" data-name="Path 31" d="M302.272,336.829h-146.2c-.163,0-.324-.008-.484-.023l.1-1.039c.125.012.251.018.38.018h146.2a3.795,3.795,0,0,0,3.773-4.187l-9.251-88.312a3.782,3.782,0,0,0-3.771-3.4v-1.044a4.823,4.823,0,0,1,4.809,4.333l9.251,88.312a4.838,4.838,0,0,1-4.811,5.34Z" fill="#34234d"/>
      </g>
      <g id="Group_47" data-name="Group 47">
        <g id="Group_42" data-name="Group 42">
          <path id="Path_32" data-name="Path 32" d="M271.668,310.2l-6.816,7.067c-13.877,0-24.789-6.655-34.209-15.034l-.018-.018c-2.072-1.84-4.068-3.767-6.013-5.722l-.019-.019h0c-2.547-2.564-5-5.18-7.392-7.734-10.064-10.757-19.577-20.914-30.362-20.914a17.154,17.154,0,1,0,0,34.309v15.132a32.284,32.284,0,0,1,0-64.568c17.345,0,29.578,13.069,41.409,25.7,2.389,2.552,4.754,5.079,7.131,7.474,1.568,1.586,3.143,3.115,4.735,4.556,7.5,6.8,15.353,11.7,24.738,11.7Z" fill="#fff"/>
        </g>
        <g id="Group_43" data-name="Group 43">
          <path id="Path_33" data-name="Path 33" d="M264.855,317.267l6.816-7.067-6.816-8.062a17.154,17.154,0,0,0,0-34.309c-11.459,0-23.111,11.611-34.379,22.841-13.119,13.076-26.684,26.6-43.637,26.6l-6.464-7.2,6.464-7.927c10.7,0,21.512-10.775,32.958-22.182,13.445-13.4,27.348-27.256,45.058-27.256a32.284,32.284,0,0,1,0,64.567Z" fill="#0a6cc7"/>
        </g>
        <g id="Group_46" data-name="Group 46">
          <g id="Group_44" data-name="Group 44">
            <path id="Path_34" data-name="Path 34" d="M186.459,317.606,179.7,310.08l6.739-8.265.791.645-6.188,7.589,6.172,6.877Z" fill="#34234d"/>
          </g>
          <g id="Group_45" data-name="Group 45">
            <path id="Path_35" data-name="Path 35" d="M186.839,302.647v-1.019c10.489,0,21.228-10.7,32.6-22.033a213.206,213.206,0,0,1,16.506-15.337l.638.8a212.342,212.342,0,0,0-16.422,15.262C208.634,291.8,197.75,302.647,186.839,302.647Z" fill="#34234d"/>
          </g>
        </g>
        <path id="Path_36" data-name="Path 36" d="M240.114,290.433l-9.471,11.8-.018-.018-6.032-5.741,10.786-10.6C236.947,287.463,238.522,288.992,240.114,290.433Z" fill="#b3a196" style="mix-blend-mode: multiply;isolation: isolate"/>
      </g>
    </g>
    <g id="Group_92" data-name="Group 92">
      <g id="Group_52" data-name="Group 52">
        <g id="Group_50" data-name="Group 50">
          <path id="Path_37" data-name="Path 37" d="M441.428,440.533H449.8s23.029-3.641,17.7-48.086a15.273,15.273,0,0,0-9.891-12.534A211.929,211.929,0,0,0,386.3,367.935s-.334.03-.878.13a209.732,209.732,0,0,1,63.815,11.848,15.252,15.252,0,0,1,9.891,12.534C464.457,436.892,441.428,440.533,441.428,440.533Z" fill="#fff"/>
          <g id="Group_49" data-name="Group 49">
            <path id="Path_38" data-name="Path 38" d="M441.428,440.908l-.059-.745c.227-.037,22.606-4.145,17.382-47.671a14.822,14.822,0,0,0-9.647-12.226,209.889,209.889,0,0,0-63.7-11.826l-3.454-.115,3.4-.629c.566-.1.912-.135.912-.135h.01a212.792,212.792,0,0,1,71.458,12A15.579,15.579,0,0,1,467.863,392.4c5.316,44.291-17.775,48.464-18.008,48.5Zm2.386-.75H449.8c.168-.032,22.547-4.14,17.323-47.666a14.828,14.828,0,0,0-9.647-12.226,207.507,207.507,0,0,0-55.426-11.4,204.9,204.9,0,0,1,47.315,10.692A15.572,15.572,0,0,1,459.495,392.4C463.783,428.129,449.588,437.753,443.814,440.158Z" fill="#34234d"/>
          </g>
        </g>
        <path id="Path_39" data-name="Path 39" d="M367.8,390.41c7.037,21.113,14.246,38.96,14.246,38.96s3.43,11.163,17.333,11.163h8.369c-13.9,0-17.343-11.163-17.343-11.163s-7.209-17.847-14.237-38.96c-6.06-18.18,5.838-21.719,9.246-22.345q-3.675-.133-7.491-.13S360.764,369.306,367.8,390.41Z" fill="#ede3dd"/>
        <g id="Group_51" data-name="Group 51">
          <path id="Path_40" data-name="Path 40" d="M441.467,441.573H399.336c-14.506,0-18.3-11.773-18.332-11.891-.042-.1-7.271-18.038-14.236-38.937-2.5-7.489-2.323-13.462.517-17.753,3.633-5.491,10.235-6.08,10.514-6.1l.084,0a213.112,213.112,0,0,1,71.666,12.047,16.226,16.226,0,0,1,10.569,13.39c5.4,44.925-17.589,49.081-18.571,49.235Zm-63.533-72.6c-.494.052-5.985.732-8.918,5.186-2.457,3.728-2.547,9.085-.269,15.923,6.946,20.834,14.151,38.72,14.224,38.9.162.507,3.44,10.5,16.365,10.5h41.951c1.322-.275,21.755-5.292,16.756-46.91a14.144,14.144,0,0,0-9.21-11.677A210.943,210.943,0,0,0,377.934,368.976Z" fill="#fff"/>
        </g>
      </g>
      <path id="Path_41" data-name="Path 41" d="M229.149,358.986s2.381-12.915,13.451-12.915c12.293,0,17.7,7.251,20.659,12.786Z" fill="#34234d"/>
      <g id="Group_60" data-name="Group 60">
        <path id="Path_42" data-name="Path 42" d="M384.619,526.17s5.535,2.231,15.19-13.73,8.366-31.15,1.8-36.556-20.081,12.356-24.2,23.426S371.49,528.186,384.619,526.17Z" fill="#3f3d56"/>
        <g id="Group_59" data-name="Group 59">
          <path id="Path_43" data-name="Path 43" d="M383.976,495c9.074,2.356,17.432,9.3,22,22,1.6,4.431,3.493,8.685,2.517,13.564-.85,4.255-4.233,8-7.318,10-.992.644-.992,1.721.19,1.712,4.27-.034,10.514-.078,14.705-.078,6.907,0,15.11-3.923,12.815-13.933s-.716-17.529,1.971-28.417-1.054-18.383-13-20.373c-4.284-.706-11.233-1.218-14.209-2.321a91.4,91.4,0,0,1-8.217-4.527S376.767,484.827,383.976,495Z" fill="#0a6cc7"/>
          <g id="Group_54" data-name="Group 54">
            <path id="Path_44" data-name="Path 44" d="M411.382,527.554c1.527-8.674.45-17.756,0-21.906-.518-4.782-3-11.709-.548-18.3,2.948-7.927,7.633-7.706,8.084-7.631,10.943,1.834,14.55,9.605,11.939,20.16-2.693,10.89-4.264,18.408-1.971,28.416s-5.913,13.933-12.822,13.933c-3.182,0-8.218.026-12.036.052a1.267,1.267,0,0,1-.788-2.269C406.172,537.762,410.268,533.88,411.382,527.554Z" fill="#fff"/>
            <g id="Group_53" data-name="Group 53">
              <path id="Path_45" data-name="Path 45" d="M404.021,542.656a1.642,1.642,0,0,1-1.008-2.942c4.549-3.492,7.166-7.491,8-12.226h0c1.463-8.31.508-17.107.049-21.335l-.051-.464c-.124-1.147-.365-2.436-.621-3.8-.8-4.27-1.8-9.583.093-14.669,3.217-8.647,8.445-7.876,8.5-7.87,5.042.844,8.7,2.943,10.859,6.235,2.349,3.576,2.827,8.551,1.385,14.385-2.727,11.023-4.22,18.425-1.971,28.242.89,3.882.315,7.137-1.7,9.672-2.356,2.956-6.648,4.72-11.483,4.72-3.18,0-8.215.026-12.032.052Zm14.612-62.577c-.968,0-4.862.457-7.446,7.4-1.82,4.891-.844,10.091-.06,14.27.258,1.379.5,2.682.63,3.857l.05.464c.463,4.262,1.426,13.131-.056,21.547h0c-.868,4.927-3.576,9.078-8.281,12.691a.863.863,0,0,0-.3.99.876.876,0,0,0,.848.606h.007c3.819-.026,8.856-.052,12.038-.052,4.609,0,8.682-1.659,10.9-4.437,1.872-2.349,2.4-5.389,1.561-9.037-2.287-9.981-.78-17.459,1.973-28.59,1.392-5.627.948-10.4-1.283-13.793-2.044-3.111-5.527-5.1-10.355-5.907A1.773,1.773,0,0,0,418.633,480.079Z" fill="#34234d"/>
            </g>
          </g>
          <g id="Group_55" data-name="Group 55">
            <path id="Path_46" data-name="Path 46" d="M414.114,527.554c1.529-8.674.45-17.756,0-21.906-.518-4.782-3-11.709-.55-18.3,2.95-7.927,7.634-7.706,8.083-7.631,10.946,1.834,14.552,9.605,11.942,20.16-2.694,10.89-4.264,18.408-1.972,28.416s-5.913,13.933-12.821,13.933c-3.524,0-9.315.014-13.213.037a.881.881,0,0,1-.523-1.6C407.975,538.566,412.877,534.572,414.114,527.554Z" fill="#e6e6e6"/>
            <path id="Path_47" data-name="Path 47" d="M405.582,542.641a1.257,1.257,0,0,1-.74-2.275c3.263-2.357,7.736-6.256,8.9-12.878h0c1.464-8.307.508-17.1.049-21.331l-.051-.468c-.124-1.147-.365-2.436-.622-3.8-.8-4.27-1.8-9.584.1-14.669,3.22-8.652,8.447-7.874,8.5-7.87,5.043.844,8.7,2.943,10.859,6.235,2.349,3.576,2.827,8.551,1.385,14.385-2.726,11.023-4.22,18.425-1.971,28.242.89,3.883.316,7.137-1.7,9.672-2.355,2.956-6.647,4.72-11.482,4.72-3.522,0-9.312.014-13.21.037Zm15.782-62.562c-.969,0-4.861.457-7.445,7.4-1.819,4.89-.844,10.091-.061,14.269.259,1.38.5,2.682.631,3.858l.051.468c.463,4.262,1.426,13.13-.057,21.543h0c-1.214,6.89-5.834,10.922-9.2,13.355a.489.489,0,0,0-.185.565.5.5,0,0,0,.485.352h0c3.9-.023,9.69-.037,13.214-.037,4.608,0,8.682-1.659,10.9-4.437,1.871-2.349,2.4-5.389,1.561-9.037-2.287-9.981-.78-17.459,1.973-28.59,1.391-5.626.948-10.4-1.284-13.793-2.044-3.111-5.528-5.1-10.355-5.907A1.8,1.8,0,0,0,421.364,480.079Z" fill="#34234d"/>
          </g>
          <path id="Path_48" data-name="Path 48" d="M431.367,492.761c0,5.622-3.548,10.18-7.925,10.18s-7.922-4.558-7.922-10.18,3.547-10.181,7.922-10.181S431.367,487.138,431.367,492.761Z" fill="#fff"/>
          <g id="Group_56" data-name="Group 56">
            <path id="Path_49" data-name="Path 49" d="M409.924,501.953c-8.221-10.028-7.107-16.975-6.247-19.5.831-2.437,2.5-4.217,4.346-4.643l.234,1.017c-1.477.341-2.886,1.9-3.592,3.964-.8,2.355-1.821,8.875,6.066,18.495Z" fill="#34234d"/>
          </g>
          <g id="Group_57" data-name="Group 57">
            <path id="Path_50" data-name="Path 50" d="M404.717,513.509a7.885,7.885,0,0,1-2.42-6.326c.484-4.755,5.45-8.3,5.662-8.449l.6.855c-.048.034-4.792,3.426-5.225,7.7a6.887,6.887,0,0,0,2.143,5.5Z" fill="#34234d"/>
          </g>
          <g id="Group_58" data-name="Group 58">
            <path id="Path_51" data-name="Path 51" d="M401.162,508.387a7.971,7.971,0,0,1-1.74-6.455c.84-4.283,5.289-7,5.478-7.11l.538.9c-.041.024-4.246,2.6-4.993,6.419A6.978,6.978,0,0,0,402,507.76Z" fill="#34234d"/>
          </g>
        </g>
        <path id="Path_52" data-name="Path 52" d="M359.133,412.039c9.068,9.887,15.79,18.107,28.318,46.854,3.551,8.148,13.516,16.519,13.516,16.519-5.889-2.961-41.164,50.364-16.348,50.758,0,0-17.677,3.689-38.787-20.767S314.34,423.367,316.4,410.494,343.3,394.781,359.133,412.039Z" fill="#aaa"/>
        <path id="Path_53" data-name="Path 53" d="M316.4,410.494c2.06-12.871,26.9-15.714,42.735,1.545a109.032,109.032,0,0,1,18.2,25.577c-1.216.08-2.758.206-3.468.226a52.533,52.533,0,0,0-7.492.814,25.588,25.588,0,0,0-18.651,13.055c-8.359,15.215.4,33.786,10.317,45.74a88.3,88.3,0,0,0,18.2,16.077c-1.285,7.177.581,12.518,8.372,12.642,0,0-17.677,3.689-38.787-20.767S314.34,423.367,316.4,410.494Z" fill="#cbcbcb"/>
      </g>
      <g id="Group_80" data-name="Group 80">
        <path id="Path_54" data-name="Path 54" d="M314.039,526.17s5.535,2.231,15.189-13.73,8.366-31.15,1.8-36.556-20.08,12.356-24.2,23.426S300.909,528.186,314.039,526.17Z" fill="#3f3d56"/>
        <g id="Group_65" data-name="Group 65">
          <path id="Path_55" data-name="Path 55" d="M313.395,495c9.074,2.356,17.432,9.3,22,22,1.6,4.431,3.493,8.685,2.517,13.564-.852,4.255-4.233,8-7.319,10-.992.644-.992,1.721.189,1.712,4.272-.034,10.516-.078,14.706-.078,6.908,0,15.111-3.923,12.815-13.933s-.716-17.529,1.971-28.417-1.054-18.383-13-20.373c-4.284-.706-11.234-1.218-14.21-2.321a91.4,91.4,0,0,1-8.217-4.527S306.186,484.827,313.395,495Z" fill="#0a6cc7"/>
          <path id="Path_56" data-name="Path 56" d="M340.8,527.554c1.529-8.674.45-17.756,0-21.906-.519-4.782-3-11.709-.549-18.3,2.948-7.927,7.633-7.706,8.083-7.631,10.945,1.834,14.551,9.605,11.941,20.16-2.693,10.89-4.264,18.408-1.972,28.416s-5.912,13.933-12.822,13.933c-3.182,0-8.217.026-12.036.052a1.267,1.267,0,0,1-.788-2.269C335.592,537.762,339.688,533.88,340.8,527.554Z" fill="#0a6cc7"/>
          <g id="Group_61" data-name="Group 61">
            <path id="Path_57" data-name="Path 57" d="M343.533,527.554c1.53-8.674.45-17.756,0-21.906-.517-4.782-3-11.709-.549-18.3,2.95-7.927,7.635-7.706,8.084-7.631,10.946,1.834,14.551,9.605,11.941,20.16-2.694,10.89-4.265,18.408-1.972,28.416s-5.913,13.933-12.822,13.933c-3.522,0-9.314.014-13.212.037a.882.882,0,0,1-.524-1.6C337.394,538.566,342.3,534.572,343.533,527.554Z" fill="#e6e6e6"/>
            <path id="Path_58" data-name="Path 58" d="M335,542.641a1.256,1.256,0,0,1-.739-2.275c3.262-2.357,7.735-6.256,8.9-12.878h0c1.465-8.316.508-17.116.048-21.344l-.05-.455c-.124-1.147-.365-2.436-.621-3.8-.8-4.27-1.8-9.583.094-14.669,3.217-8.647,8.445-7.876,8.5-7.87,5.042.844,8.7,2.943,10.858,6.235,2.349,3.576,2.827,8.551,1.385,14.385-2.727,11.023-4.22,18.425-1.971,28.242.89,3.883.316,7.137-1.7,9.672-2.355,2.956-6.647,4.72-11.482,4.72-3.522,0-9.312.014-13.21.037Zm8.9-15.022c-1.213,6.89-5.832,10.921-9.2,13.355a.486.486,0,0,0-.185.565.5.5,0,0,0,.484.352h0c3.9-.023,9.69-.037,13.214-.037,4.608,0,8.681-1.659,10.9-4.437,1.871-2.349,2.4-5.389,1.561-9.037-2.287-9.981-.78-17.459,1.973-28.59,1.391-5.627.948-10.4-1.284-13.793-2.044-3.111-5.527-5.1-10.354-5.907-.047-.011-4.714-.557-7.671,7.391-1.819,4.891-.844,10.091-.06,14.27.258,1.379.5,2.682.63,3.857l.049.455c.464,4.263,1.43,13.133-.055,21.556Z" fill="#34234d"/>
          </g>
          <path id="Path_59" data-name="Path 59" d="M360.786,492.761c0,5.622-3.548,10.18-7.924,10.18s-7.923-4.558-7.923-10.18,3.547-10.181,7.923-10.181S360.786,487.138,360.786,492.761Z" fill="#fff"/>
          <g id="Group_62" data-name="Group 62">
            <path id="Path_60" data-name="Path 60" d="M339.343,501.953c-8.221-10.028-7.107-16.975-6.247-19.5.832-2.437,2.5-4.217,4.346-4.643l.235,1.017c-1.478.341-2.887,1.9-3.593,3.964-.8,2.355-1.821,8.875,6.066,18.495Z" fill="#34234d"/>
          </g>
          <g id="Group_63" data-name="Group 63">
            <path id="Path_61" data-name="Path 61" d="M334.137,513.509a7.882,7.882,0,0,1-2.42-6.326c.483-4.755,5.45-8.3,5.66-8.449l.6.855c-.048.034-4.792,3.426-5.226,7.7a6.891,6.891,0,0,0,2.143,5.5Z" fill="#34234d"/>
          </g>
          <g id="Group_64" data-name="Group 64">
            <path id="Path_62" data-name="Path 62" d="M330.581,508.387a7.971,7.971,0,0,1-1.74-6.455c.84-4.283,5.289-7,5.479-7.11l.537.9c-.043.024-4.246,2.6-4.992,6.419a6.974,6.974,0,0,0,1.552,5.623Z" fill="#34234d"/>
          </g>
        </g>
        <path id="Path_63" data-name="Path 63" d="M288.553,412.039c9.068,9.887,15.789,18.107,28.318,46.854,3.55,8.148,13.515,16.519,13.515,16.519-5.889-2.961-41.164,50.364-16.347,50.758,0,0-17.678,3.689-38.788-20.767s-31.492-82.036-29.434-94.909S272.722,394.781,288.553,412.039Z" fill="#cbcbcb"/>
        <path id="Path_64" data-name="Path 64" d="M396.871,434.633c-11.541,3.878-32.55,1.856-54.332,1.856s-64.236,2.827-76.856-2.846c-8.994-4.043-29.581-17.7-15.223-37.253S385.155,373,397.779,372.5,427.813,424.236,396.871,434.633Z" fill="#cbcbcb"/>
        <g id="Group_71" data-name="Group 71">
          <path id="Path_68" data-name="Path 68" d="M409.958,240.615c.006-.016.016-.033.022-.05a37.039,37.039,0,0,0,2.459-21.207c-1.474-8.137-12.825-15.495-30.794-11.979-9.307,1.821-4.363,16.745-3.946,24.723.466,8.952,4.461,22.27,11.4,22.471a11.058,11.058,0,0,0,3.853-1.022l3.355,10.276s14.791,3.738,21.075-6.293Z" fill="#9f616a"/>
          <g id="Group_70" data-name="Group 70">
            <path id="Path_69" data-name="Path 69" d="M402.515,264.86a29.018,29.018,0,0,1-6.3-.669l-.2-.051-3.295-10.092a10.5,10.5,0,0,1-3.632.9c-7.222-.21-11.287-13.745-11.76-22.826-.092-1.747-.4-3.843-.734-6.062-1.166-7.824-2.617-17.562,4.982-19.049,10-1.957,18.867-.744,24.961,3.417a14.076,14.076,0,0,1,6.276,8.864,37.3,37.3,0,0,1-2.259,20.843c-.071.18-.134.338-.186.473l7.437,16.957-.106.168C414.011,263.616,407.426,264.86,402.515,264.86Zm-5.921-1.351c1.757.385,14.632,2.852,20.36-6.007l-7.4-16.874.075-.2c.057-.152.133-.344.223-.571a36.044,36.044,0,0,0,2.217-20.434,13.336,13.336,0,0,0-5.961-8.378c-3.43-2.343-11.161-5.889-24.392-3.3-6.9,1.35-5.563,10.3-4.385,18.2.333,2.237.648,4.35.74,6.133.478,9.151,4.577,21.928,11.033,22.115a10.9,10.9,0,0,0,3.7-.993l.373-.152Z" fill="#34234d"/>
          </g>
        </g>
        <path id="Path_70" data-name="Path 70" d="M377.995,215.078c.971.275,3.931.915,3.931.915s1.828,6.947,3.29,9.414-.544,12.261-5.3,13.907-.864,6.41-.087,8.6c1.11,3.137-1.373,7.022,5.071,8.256,4.3.823,14.171-3.04,10.514-9.073s-9.47-13.375-6-21.144.549,8.774,10.238,13.07S412,245.15,412,245.15s.64-3.839,3.017-5.118,8.226-11.06,6.763-22.3-7.129-14.26-17.367-14.717-7.339-5.179-13.71-5.392-15.37-6.454-15.37-6.454S369.094,212.566,377.995,215.078Z" fill="#2f2e41"/>
        <path id="Path_71" data-name="Path 71" d="M389.692,260.842c-17.749,6.242-29.086,20.208-38.84,60.58s-22.315,44.449-25.614,55.671c0,0,40.791,21.958,61.313,59.445,0,0,69.479,5.507,65.189-50.929s6.323-67.482,3.8-88.545-20.373-39.361-32.509-40.512C413.022,255.6,403.4,256.023,389.692,260.842Z" fill="#2f2e41"/>
        <g id="Group_73" data-name="Group 73">
          <path id="Path_72" data-name="Path 72" d="M400.363,232.033c-1.1,3.621-4.5,5.794-7.605,4.852s-4.728-4.638-3.629-8.258,4.5-5.794,7.605-4.853S401.461,228.413,400.363,232.033Z" fill="#9f616a"/>
          <g id="Group_72" data-name="Group 72">
            <path id="Path_73" data-name="Path 73" d="M394.246,237.481a5.49,5.49,0,0,1-1.6-.237,5.817,5.817,0,0,1-3.624-3.332,7.793,7.793,0,0,1-.253-5.394c1.154-3.813,4.779-6.1,8.072-5.1a5.814,5.814,0,0,1,3.624,3.333,7.793,7.793,0,0,1,.254,5.394h0a7.8,7.8,0,0,1-3.207,4.344A6.067,6.067,0,0,1,394.246,237.481Zm1.011-13.551a6.387,6.387,0,0,0-5.77,4.805,7.05,7.05,0,0,0,.224,4.875,4.923,4.923,0,0,0,7.4,2.244,7.05,7.05,0,0,0,2.894-3.93h0a7.045,7.045,0,0,0-.224-4.875,5.071,5.071,0,0,0-3.154-2.916A4.711,4.711,0,0,0,395.257,223.93Z" fill="#34234d"/>
          </g>
        </g>
        <g id="Group_74" data-name="Group 74">
          <path id="Path_74" data-name="Path 74" d="M392.967,234.866a1.386,1.386,0,0,1-.438-.072c-.987-.327-1.529-1.692-1.589-1.846l.976-.371c.133.342.535,1.091.942,1.225a.392.392,0,0,0,.367-.071c.312-.2.31-.338.254-.894a3.034,3.034,0,0,1,.709-2.569,5.177,5.177,0,0,1,1.863-1.334c.84-.409,1.038-.506.768-1.411a1.074,1.074,0,0,0-.551-.668,5.38,5.38,0,0,0-3.316.067l-.312-1c.1-.033,2.6-.8,4.118.007a2.1,2.1,0,0,1,1.062,1.291c.525,1.755-.451,2.23-1.312,2.649a4.248,4.248,0,0,0-1.52,1.067,2.028,2.028,0,0,0-.47,1.79,1.7,1.7,0,0,1-.732,1.881A1.514,1.514,0,0,1,392.967,234.866Z" fill="#34234d"/>
        </g>
        <g id="Group_76" data-name="Group 76">
          <path id="Path_75" data-name="Path 75" d="M344.1,300.131s-19.41,22-25.338,29.244c-16.108,6.39-43.32,14.939-46.557,15.832-3.59.989-5.57.742-11.016-4.456s-6.683-3.712-13.366-1.732-8.664-1.857-11.758,5.446-8.531,8.712-8.415,10.272c.193,2.605,7.611-.5,7.611-.5s0,4.147,2.723,4.271,1.485-3.28,2.722-5.879,7.488-5.322,8.974.061,7.921,6.25,7.921,6.25h74.32a7.437,7.437,0,0,0,2.727-.052c11.6-2.448,32.317-16.491,44.56-33.282S362.522,282.694,344.1,300.131Z" fill="#9f616a"/>
        </g>
        <path id="Path_77" data-name="Path 77" d="M401.811,267.208c5.646,3.7,10.91,10.127,5.965,25.785s-24.246,40.4-42.589,56.314c0,0-32.911-16.377-30.3-39.47,0,0,28.185-31.445,39-39.762S395.581,263.123,401.811,267.208Z" fill="#2f2e41"/>
        <g id="Group_79" data-name="Group 79">
          <path id="Path_80" data-name="Path 80" d="M303.843,437.717a52.786,52.786,0,0,1-34.948-14.027l.7-.775c17.6,15.881,36.723,13.664,36.911,13.643l.133,1.035A25.477,25.477,0,0,1,303.843,437.717Z" fill="#34234d"/>
        </g>
      </g>
      <path id="Path_81" data-name="Path 81" d="M283.855,440.357h98.919v-4.5H283.855a2.252,2.252,0,0,0-2.253,2.252h0A2.251,2.251,0,0,0,283.855,440.357Z" fill="#34234d"/>
      <path id="Path_82" data-name="Path 82" d="M384.191,530.584h0a2.767,2.767,0,0,0,3-2.453V437.692h-6v90.439A2.767,2.767,0,0,0,384.191,530.584Z" fill="#fff"/>
      <g id="Group_81" data-name="Group 81">
        <rect id="Rectangle_15" data-name="Rectangle 15" width="1.043" height="88.469" transform="translate(382.307 438.733)"/>
      </g>
      <g id="Group_82" data-name="Group 82">
        <path id="Path_83" data-name="Path 83" d="M354.8,539.559h-1.045v-8.4a10.5,10.5,0,0,1,10.486-10.486h39.792a10.5,10.5,0,0,1,10.487,10.486v7.033h-1.044v-7.033a9.453,9.453,0,0,0-9.443-9.441H364.24a9.451,9.451,0,0,0-9.441,9.441Z" fill="#34234d"/>
      </g>
      <g id="Group_83" data-name="Group 83">
        <path id="Path_84" data-name="Path 84" d="M339.494,539.559h-1.045v-8.4a10.5,10.5,0,0,1,10.487-10.486h70.4a10.5,10.5,0,0,1,10.485,10.486v7.033h-1.044v-7.033a9.451,9.451,0,0,0-9.441-9.441h-70.4a9.452,9.452,0,0,0-9.442,9.441Z" fill="#34234d"/>
      </g>
      <path id="Path_85" data-name="Path 85" d="M349.31,538.093a4.982,4.982,0,1,0,4.982-4.983A4.981,4.981,0,0,0,349.31,538.093Z" fill="#3f3d56"/>
      <path id="Path_86" data-name="Path 86" d="M334.266,538.093a4.982,4.982,0,1,0,4.982-4.983A4.981,4.981,0,0,0,334.266,538.093Z" fill="#3f3d56"/>
      <path id="Path_87" data-name="Path 87" d="M424.408,538.093a4.982,4.982,0,1,0,4.982-4.983A4.981,4.981,0,0,0,424.408,538.093Z" fill="#3f3d56"/>
      <path id="Path_88" data-name="Path 88" d="M408.7,538.093a4.982,4.982,0,1,0,4.981-4.983A4.98,4.98,0,0,0,408.7,538.093Z" fill="#3f3d56"/>
      <path id="Path_89" data-name="Path 89" d="M444.037,439.971H367.23c3.469-.673,20.979-6.545,16.488-56.249-2.677-29.641,15.33-75.095,20.893-87.186H484.2c.221,1.406-.34,3.524-3.08,6.608-6.177,6.951-19.307,60.755-21.11,76.2C458.254,394.358,472.549,429.951,444.037,439.971Z" fill="#e6e6e6"/>
      <g id="Group_84" data-name="Group 84">
        <path id="Path_90" data-name="Path 90" d="M444.126,440.494h-76.9v-1.045h76.717c20.748-7.35,18.314-28.381,16.358-45.283-.683-5.9-1.272-10.987-.819-14.881,1.675-14.345,14.764-69.205,21.239-76.488,1.988-2.236,3.011-4.207,2.99-5.739H449.279v-1.044h35.362l.07.44c.3,1.933-.773,4.3-3.2,7.036-6.043,6.8-19.1,59.794-20.982,75.915-.44,3.775.143,8.81.818,14.64,1.9,16.383,4.493,38.819-17.131,46.419Z" fill="#34234d"/>
      </g>
      <g id="Group_88" data-name="Group 88">
        <path id="Path_91" data-name="Path 91" d="M362.48,440.533h8.37s23.029-3.641,17.7-48.086a15.273,15.273,0,0,0-9.891-12.534,211.936,211.936,0,0,0-71.307-11.978s-.333.03-.877.13a209.717,209.717,0,0,1,63.814,11.848,15.255,15.255,0,0,1,9.892,12.534C385.51,436.892,362.48,440.533,362.48,440.533Z" fill="#ede3dd"/>
        <g id="Group_86" data-name="Group 86">
          <path id="Path_92" data-name="Path 92" d="M288.855,390.41c7.038,21.113,14.248,38.96,14.248,38.96s3.426,11.163,17.332,11.163H328.8c-13.906,0-17.343-11.163-17.343-11.163s-7.21-17.847-14.236-38.96c-6.062-18.18,5.837-21.719,9.245-22.345q-3.675-.133-7.491-.13S281.817,369.306,288.855,390.41Z" fill="#fff"/>
          <g id="Group_85" data-name="Group 85">
            <path id="Path_93" data-name="Path 93" d="M328.8,440.908h-8.369c-14.021,0-17.656-11.313-17.691-11.428-.061-.148-7.284-18.069-14.245-38.952-2.429-7.281-2.281-13.056.439-17.166,3.455-5.22,9.744-5.779,10.009-5.8h.106c2.617,0,5.106.044,7.43.129l3.42.126-3.366.619c-1.842.337-6.4,1.582-8.9,5.818-2.293,3.88-2.313,9.276-.059,16.039,6.943,20.859,14.157,38.76,14.23,38.937.044.139,3.543,10.929,16.995,10.929Zm-29.826-72.6c-.032.005-6.171.557-9.419,5.473-2.581,3.907-2.7,9.461-.349,16.509h0c6.954,20.859,14.168,38.76,14.24,38.937.044.14,3.533,10.929,16.985,10.929h2.5A17.515,17.515,0,0,1,311.1,429.48c-.062-.148-7.285-18.069-14.235-38.952-2.326-6.977-2.285-12.582.123-16.657a13.006,13.006,0,0,1,6.944-5.506C302.338,368.329,300.679,368.31,298.978,368.31Z" fill="#34234d"/>
          </g>
        </g>
        <g id="Group_87" data-name="Group 87">
          <path id="Path_94" data-name="Path 94" d="M362.518,441.573H320.39c-14.507,0-18.3-11.773-18.333-11.891-.041-.1-7.271-18.038-14.237-38.937-2.5-7.489-2.322-13.461.518-17.753,3.633-5.491,10.234-6.08,10.514-6.1l.084,0A213.127,213.127,0,0,1,370.6,378.935a16.224,16.224,0,0,1,10.569,13.39c5.4,44.925-17.591,49.081-18.571,49.235Zm-63.532-72.6c-.492.052-5.984.732-8.919,5.186-2.456,3.729-2.545,9.085-.266,15.923,6.945,20.834,14.15,38.72,14.222,38.9.163.507,3.442,10.5,16.367,10.5h41.948c1.324-.275,21.758-5.292,16.758-46.91a14.141,14.141,0,0,0-9.209-11.677A210.973,210.973,0,0,0,298.986,368.976Z" fill="#34234d"/>
        </g>
      </g>
      <g id="Group_89" data-name="Group 89">
        <rect id="Rectangle_16" data-name="Rectangle 16" width="53.29" height="1.044" transform="translate(419.631 325.662)" fill="#34234d"/>
      </g>
      <g id="Group_90" data-name="Group 90">
        <rect id="Rectangle_17" data-name="Rectangle 17" width="53.29" height="1.043" transform="translate(416.606 335.745)" fill="#34234d"/>
      </g>
      <g id="Group_91" data-name="Group 91">
        <rect id="Rectangle_18" data-name="Rectangle 18" width="53.289" height="1.045" transform="translate(412.572 345.828)" fill="#34234d"/>
      </g>
    </g>
    <g id="Group_93" data-name="Group 93">
      <rect id="Rectangle_19" data-name="Rectangle 19" width="422.932" height="1.02" transform="translate(88.101 542.102)" fill="#34234d"/>
    </g>
  </g>
</svg>
